<?xml version="1.0" encoding="UTF-8" standalone="no"?>
<!-- Created with Inkscape (http://www.inkscape.org/) -->

<svg
   xmlns:dc="http://purl.org/dc/elements/1.1/"
   xmlns:cc="http://creativecommons.org/ns#"
   xmlns:rdf="http://www.w3.org/1999/02/22-rdf-syntax-ns#"
   xmlns:svg="http://www.w3.org/2000/svg"
   xmlns="http://www.w3.org/2000/svg"
   xmlns:xlink="http://www.w3.org/1999/xlink"
   xmlns:sodipodi="http://sodipodi.sourceforge.net/DTD/sodipodi-0.dtd"
   xmlns:inkscape="http://www.inkscape.org/namespaces/inkscape"
   width="536.8429"
   height="435.42892"
   id="svg2"
   version="1.1"
   inkscape:version="0.48.2 r9819"
   sodipodi:docname="codeartemis.svg">
  <defs
     id="defs4">
    <linearGradient
       id="linearGradient5311">
      <stop
         style="stop-color:#e71c00;stop-opacity:1;"
         offset="0"
         id="stop5313" />
      <stop
         id="stop5325"
         offset="0.26799998"
         style="stop-color:#e73817;stop-opacity:1;" />
      <stop
         style="stop-color:#e77047;stop-opacity:1;"
         offset="0.31"
         id="stop5327" />
      <stop
         id="stop5319"
         offset="1"
         style="stop-color:#ffe3d6;stop-opacity:1;" />
    </linearGradient>
    <linearGradient
       inkscape:collect="always"
       id="linearGradient5211">
      <stop
         style="stop-color:#000000;stop-opacity:1;"
         offset="0"
         id="stop5213" />
      <stop
         style="stop-color:#000000;stop-opacity:0;"
         offset="1"
         id="stop5215" />
    </linearGradient>
    <linearGradient
       id="linearGradient3790">
      <stop
         id="stop4294"
         offset="0"
         style="stop-color:#ff0000;stop-opacity:1;" />
      <stop
         style="stop-color:#dd7e3e;stop-opacity:1;"
         offset="0.26319152"
         id="stop4302" />
      <stop
         id="stop4300"
         offset="0.63165963"
         style="stop-color:#f0dd5d;stop-opacity:1;" />
      <stop
         style="stop-color:#fffff2;stop-opacity:1;"
         offset="1"
         id="stop3794" />
    </linearGradient>
    <linearGradient
       inkscape:collect="always"
       xlink:href="#linearGradient3790"
       id="linearGradient3796"
       x1="308.15295"
       y1="242.17024"
       x2="307.83148"
       y2="167.82812"
       gradientUnits="userSpaceOnUse" />
    <linearGradient
       inkscape:collect="always"
       xlink:href="#linearGradient3790"
       id="linearGradient3849"
       gradientUnits="userSpaceOnUse"
       x1="308.15295"
       y1="242.17024"
       x2="307.83148"
       y2="167.82812" />
    <linearGradient
       inkscape:collect="always"
       xlink:href="#linearGradient3790"
       id="linearGradient4242"
       x1="88.58268"
       y1="627.16534"
       x2="88.58268"
       y2="503.1496"
       gradientUnits="userSpaceOnUse" />
    <linearGradient
       inkscape:collect="always"
       xlink:href="#linearGradient5211"
       id="linearGradient5217"
       x1="138.97813"
       y1="731.78339"
       x2="606.07373"
       y2="731.78339"
       gradientUnits="userSpaceOnUse" />
    <linearGradient
       inkscape:collect="always"
       xlink:href="#linearGradient5211"
       id="linearGradient5219"
       x1="215.30951"
       y1="607.20184"
       x2="529.74237"
       y2="607.20184"
       gradientUnits="userSpaceOnUse" />
    <clipPath
       clipPathUnits="userSpaceOnUse"
       id="clipPath5380">
      <g
         style="fill:none"
         id="g5382">
        <path
           inkscape:export-ydpi="399.96063"
           inkscape:export-xdpi="399.96063"
           inkscape:export-filename="/Users/jas/projects/TriggerRally/misc/codeartemis/path3125.png"
           sodipodi:nodetypes="cscccccccccccccccccccccsccccccccccccccccccccsccccccccscccccccsccccc"
           d="m 144.83661,809.69926 c 1.45391,1.07142 2.85191,1.60713 4.19399,1.60713 3.24335,0 5.98342,-1.74106 8.22023,-5.22317 2.0131,-7.23208 4.64133,-16.40608 7.88471,-27.52209 3.35517,-11.24987 7.21364,-24.03994 11.57542,-38.37021 0.78284,-0.66957 1.7894,-1.00443 3.01968,-1.00446 1.23019,3e-5 2.96371,0.40178 5.20055,1.20535 2.23675,0.6697 4.64129,1.00449 7.21367,1.00445 0.44728,4e-5 1.06242,4e-5 1.84535,0 0.78282,-0.13393 1.62163,-0.20089 2.5164,-0.20089 0.89466,4e-5 1.78937,4e-5 2.68416,0 0.89465,-0.13393 1.67753,-0.20089 2.34863,-0.20089 1.23017,3e-5 2.34857,0.13393 3.3552,0.40178 1.11833,0.26786 2.1808,0.60271 3.18743,1.00446 2.01304,5.2232 4.4176,11.65172 7.21366,19.28555 2.79592,7.6339 5.98336,16.20522 9.56231,25.71407 -0.11195,0.80356 -0.16783,1.54016 -0.16776,2.2098 -9e-5,0.53571 -9e-5,1.13839 0,1.80802 -9e-5,1.74106 0.22357,3.68304 0.67104,5.82585 0.44728,2.00891 1.11831,4.08478 2.01312,6.22762 l 0,-0.20089 1.34207,4.6205 c 1.90119,0.40178 3.69062,0.66964 5.36832,0.80356 1.78934,0.13393 3.46693,0.20089 5.03279,0.20089 1.23013,0 2.73997,-0.067 4.52951,-0.20089 1.90117,-0.13392 4.02613,-0.46857 6.37487,-1.00445 l 0,-4.41961 c -1.1e-4,-3.08033 -0.78299,-6.8303 -2.34863,-11.2499 -1.45403,-4.5535 -3.07571,-8.90618 -4.86504,-13.05793 -1.6777,-4.15172 -3.29938,-7.76776 -4.86503,-10.84812 -1.45402,-3.08033 -2.18097,-4.82136 -2.18087,-5.22317 -0.22378,-1.07135 -0.50338,-2.00888 -0.83881,-2.81248 -0.33558,-0.93746 -0.61521,-1.80799 -0.83879,-2.61158 -2.34873,-7.76776 -4.36185,-14.46413 -6.03936,-20.08912 -1.67768,-5.75881 -3.29935,-10.91502 -4.86503,-15.46862 -1.454,-4.68739 -2.96383,-8.97307 -4.52951,-12.85704 -1.45399,-4.01775 -3.13159,-8.23646 -5.03279,-12.65614 -1.67767,-4.55339 -3.52302,-9.8436 -5.53607,-15.8704 -2.01318,-6.02656 -3.64143,-8.4713 -5.54264,-14.89999 -0.0223,-1.23835 -0.0586,-2.88226 -0.51314,-3.70768 -0.6711,-1.33913 -1.61845,-3.99416 -2.51311,-5.33361 -1.51903,-2.1626 -1.00393,-3.22886 -3.20677,-4.32454 -0.74562,-0.0281 -6.89462,8.55529 -7.65977,11.16379 -2.99507,4.86416 -5.38419,8.85438 -6.39957,11.47708 -1.0066,2.2769 -2.18091,5.29027 -3.52295,9.0401 -1.34212,3.75011 -2.79604,7.70097 -4.36176,11.85258 -1.45395,4.01789 -3.0197,7.96882 -4.69726,11.85258 -1.56579,3.7501 -3.13155,6.83037 -4.69728,9.24099 -1.45394,6.42859 -3.35522,13.72763 -5.70383,21.89714 -2.34865,8.03568 -5.31241,17.20974 -8.89127,27.52209 -1.11841,3.21429 -2.23681,6.49551 -3.35519,9.84366 -1.1184,3.2143 -2.12497,6.36156 -3.01968,9.44189 -0.89472,2.9464 -1.62168,5.75888 -2.18087,8.43743 -0.5592,2.54462 -0.83881,4.62049 -0.8388,6.22762 -1e-5,3.8839 1.28615,7.03119 3.85847,9.44189 M 197.3454,707.04387 c 0.55915,2.54476 1.11835,4.88842 1.6776,7.03119 0.67098,2.14291 1.34202,4.08486 2.01312,5.82585 -1.00662,0.13392 -2.34869,0.33482 -4.02623,0.60267 -1.56582,0.13393 -3.18749,0.33482 -4.86504,0.60267 -1.67764,0.26821 -3.29932,0.53578 -4.86503,0.80357 -1.45396,0.13393 -2.57236,0.20089 -3.35519,0.20089 l -0.50328,0 c 1.56571,-5.08917 3.2433,-10.11138 5.03279,-15.06684 1.90123,-5.0891 3.91434,-9.24092 6.03935,-12.45525 0.33549,1.47334 0.7269,3.28129 1.17432,5.42406 0.55915,2.00898 1.11834,4.35278 1.67759,7.03119"
           style="font-size:40px;fill:none;stroke:#000000;stroke-width:4;stroke-linecap:square;stroke-linejoin:round;stroke-miterlimit:4;stroke-opacity:1;stroke-dasharray:none;font-family:Diogenes;-inkscape-font-specification:Diogenes"
           id="path5384"
           inkscape:connector-curvature="0" />
        <path
           inkscape:export-ydpi="399.96063"
           inkscape:export-xdpi="399.96063"
           inkscape:export-filename="/Users/jas/projects/TriggerRally/misc/codeartemis/path3125.png"
           d="m 313.61241,805.65573 c 1.08726,-0.83705 1.86393,-1.67409 2.33,-2.51114 0.46593,-0.83705 0.81543,-1.76711 1.04849,-2.79015 l -0.11649,0 0.699,-2.09262 c -4.42705,-4.46425 -8.38804,-8.83548 -11.88298,-13.11373 -3.41738,-4.37123 -6.48521,-8.50994 -9.20348,-12.41619 -2.64071,-3.9992 -4.9707,-7.71938 -6.98999,-11.16062 -1.9417,-3.44113 -3.6892,-6.5103 -5.24249,-9.20751 l 0.11649,0.13951 c -0.15535,-0.27902 -0.31072,-0.558 -0.466,-0.83705 -0.0777,-0.27902 -0.1942,-0.55796 -0.3495,-0.83705 l 0,-1.39507 c 0.85429,-0.55797 2.09696,-1.16252 3.72799,-1.8136 1.70862,-0.744 3.49495,-1.44154 5.35899,-2.09262 1.86396,-0.744 3.65028,-1.48803 5.35899,-2.23213 1.78628,-0.83697 3.18428,-1.62753 4.194,-2.37163 4.19393,-3.62713 7.61126,-7.53335 10.25198,-11.71865 -1.08739,-4.09214 -2.52422,-7.67286 -4.31049,-10.7421 -1.78639,-3.16208 -4.15522,-5.95223 -7.10649,-8.37046 -2.95138,-2.41805 -6.64054,-4.55716 -11.06748,-6.41736 -4.42703,-1.85998 -9.82485,-3.62709 -16.19348,-5.30129 -2.01935,-0.46491 -4.07751,-0.97645 -6.17449,-1.53459 -2.09701,-0.55792 -3.99984,-1.11595 -5.70849,-1.67409 -2.563,0.93017 -4.15517,2.51124 -4.77649,4.74326 -0.62134,2.13922 -0.932,4.55737 -0.932,7.25441 l 0,5.16178 c 0.69899,2.23223 1.04849,5.44088 1.0485,9.62604 -10e-6,1.11613 -0.0777,2.41823 -0.23301,3.90622 -0.0777,1.48816 -0.19416,3.06924 -0.3495,4.74326 -0.0777,1.58115 -0.15534,3.20875 -0.23301,4.88277 -0.0777,1.67416 -0.11649,3.25524 -0.11649,4.74326 -10e-6,2.51121 0.11649,4.83632 0.3495,6.97539 0.31065,2.13918 0.77665,4.0458 1.39799,5.71982 -1.55334,3.16222 -2.33,6.60342 -2.32999,10.32357 -10e-6,1.02308 0.11649,2.51118 0.3495,4.46425 0.31065,1.95315 0.62132,4.04576 0.93199,6.27785 0.31065,2.13914 0.58249,4.23176 0.8155,6.27785 0.31065,1.95314 0.46599,3.48773 0.46601,4.60376 -2.40767,1.9531 -3.6115,4.83628 -3.6115,8.64948 l 0,2.51114 c 0.0776,0.46504 0.11649,0.88357 0.11649,1.25557 -1e-5,0.27901 -1e-5,0.51154 0,0.69753 -1e-5,1.4881 -0.27183,3.06917 -0.8155,4.74327 l 2.91249,4.04572 c 0.77666,0.27902 1.55333,0.46502 2.33,0.55803 0.77666,0.0931 1.63099,0.13951 2.563,0.13951 1.55332,0 3.02898,-0.23263 4.42699,-0.69754 1.39798,-0.55803 2.83481,-1.34858 4.31049,-2.37163 0.0776,-1.20908 0.11646,-2.60416 0.11649,-4.18523 -2e-5,-1.67409 -2e-5,-3.25517 0,-4.74327 -2e-5,-1.39507 -0.0388,-3.58067 -0.11649,-6.55686 -0.0777,-2.97615 -0.15534,-6.09182 -0.23301,-9.34702 -0.0777,-3.34815 -0.15534,-6.51034 -0.23301,-9.48653 -0.0777,-2.97612 -0.11653,-5.16175 -0.11649,-6.55686 l 0,-5.02228 c 1.08731,0.18624 2.05814,0.55807 2.9125,1.11606 0.93197,0.46509 1.86397,1.16262 2.79599,2.09262 0.93197,0.9301 1.9028,2.18567 2.9125,3.76671 1.0873,1.48813 2.32996,3.39471 3.72799,5.71982 2.71829,4.83628 5.12596,8.18446 7.22299,10.04455 0.85429,0.1859 1.51446,0.88358 1.9805,2.09262 0.46595,1.20908 0.97079,2.69717 1.51449,4.46425 0.54363,1.76711 1.20379,3.6272 1.9805,5.58031 0.85428,1.86012 2.09695,3.58071 3.72799,5.16179 1.08729,1.02304 2.01929,2.09261 2.796,3.20867 0.85428,1.02305 1.63094,1.95311 2.33,2.79016 0.69894,0.83705 1.35911,1.53458 1.98049,2.09261 0.69894,0.55804 1.39794,0.83705 2.097,0.83705 0.31061,0 0.69894,-0.0931 1.165,-0.27901 0.46593,-0.1859 1.0096,-0.41853 1.631,-0.69754 l -0.11649,0 c 0.46593,-0.1859 0.8931,-0.37204 1.28149,-0.55803 0.38827,-0.1859 0.69894,-0.27902 0.932,-0.27902 l 0.8155,0 m -42.75543,-63.47603 -1.0485,0.41853 c 0.0776,-0.65098 0.11645,-1.39501 0.11649,-2.23213 -2e-5,-0.83697 -2e-5,-1.76704 0,-2.79015 -2e-5,-1.67403 -0.0777,-3.58064 -0.23301,-5.71982 -0.0777,-2.23206 -0.11653,-4.55716 -0.11649,-6.97539 -2e-5,-4.55716 0.54365,-8.13787 1.631,-10.7421 2.4853,0.37211 4.73763,0.65112 6.75699,0.83705 2.09696,0.18624 4.15512,0.69764 6.17448,1.53459 2.09696,0.83711 4.31046,2.13921 6.64049,3.90621 2.40762,1.76718 5.16478,4.41783 8.27149,7.95195 -7.53369,4.09228 -13.51401,7.20798 -17.94097,9.34701 -4.42702,2.04616 -7.84434,3.53426 -10.25199,4.46425"
           style="font-size:40px;fill:none;stroke:#000000;stroke-width:4;stroke-linecap:square;stroke-linejoin:round;stroke-miterlimit:4;stroke-opacity:1;stroke-dasharray:none;font-family:Diogenes;-inkscape-font-specification:Diogenes"
           id="path5386"
           inkscape:connector-curvature="0" />
        <path
           inkscape:export-ydpi="399.96063"
           inkscape:export-xdpi="399.96063"
           inkscape:export-filename="/Users/jas/projects/TriggerRally/misc/codeartemis/path3125.png"
           d="m 384.14394,710.09292 c -8e-5,-0.55793 0.0387,-0.88347 0.11649,-0.97655 0.15524,-0.83695 0.34941,-1.90652 0.5825,-3.20868 0.23301,-1.30196 0.34942,-2.23202 0.3495,-2.79016 -8e-5,-1.39497 -0.27204,-2.46454 -0.8155,-3.20868 -0.54373,-0.83694 -1.24273,-1.44146 -2.09699,-1.8136 -0.85441,-0.37193 -1.86409,-0.60441 -3.029,-0.69754 -1.08741,-0.0928 -2.21356,-0.1395 -3.37849,-0.1395 -0.77674,1e-4 -2.09706,0.0931 -3.961,0.27901 -1.78641,0.18624 -3.72805,0.41863 -5.82499,0.69754 -2.09705,0.27902 -4.15523,0.51165 -6.17449,0.69754 -2.01938,0.18624 -3.57271,0.27901 -4.65999,0.27901 l -0.932,0 c -2.17471,-0.74392 -4.8542,-1.06946 -8.03848,-0.97655 -3.10671,10e-5 -6.99003,-0.0928 -11.64999,-0.27902 -4.19402,-0.18589 -7.84434,-0.4649 -10.95098,-0.83704 -3.02901,-0.37193 -5.55317,-0.79045 -7.57249,-1.25557 l 0.11649,0 c -0.62134,-0.1859 -1.32034,-0.3254 -2.09699,-0.41852 -0.77668,-0.0928 -1.35918,-0.1859 -1.7475,-0.27902 -1.94167,5.02238 -2.9125,8.83558 -2.9125,11.43964 0,2.69724 0.466,4.37133 1.398,5.02227 0.93199,0.65112 1.98049,0.97666 3.1455,0.97656 l 1.28149,0 c 1.08733,0.46512 2.01932,0.46512 2.796,0 0.77665,-0.55793 1.24265,-0.83694 1.398,-0.83705 0.0776,1.1e-4 0.1553,0.0467 0.23301,0.13951 0.15531,10e-5 0.31065,10e-5 0.466,0 1.63098,0.27902 2.95131,0.46512 3.96099,0.55803 1.00965,0.0931 1.74748,0.18624 2.2135,0.27902 0.54364,10e-5 0.89314,10e-5 1.0485,0 0.1553,-0.0928 0.23297,-0.13951 0.23301,-0.13951 l 2.91249,0 c 3.18431,10e-5 5.90263,0.3721 8.15499,1.11606 -0.15538,0.65112 -0.31072,1.39518 -0.466,2.23213 -0.15534,0.74413 -0.31068,1.48816 -0.466,2.23212 -0.15534,0.46512 -0.27186,0.97662 -0.3495,1.53458 -3e-5,0.55811 -0.0388,0.93014 -0.11649,1.11607 1.86397,5.02235 2.79597,10.55616 2.796,16.60142 -3e-5,1.48816 -0.0777,3.53425 -0.23301,6.13834 -0.15534,2.51121 -0.34953,5.11533 -0.5825,7.81243 -0.15534,2.69721 -0.31069,5.20835 -0.466,7.53342 -0.15534,2.32518 -0.27187,3.95278 -0.3495,4.88277 0.15531,1.3021 0.2718,2.79019 0.3495,4.46425 0.0776,1.58111 0.11645,3.34822 0.11649,5.3013 -3e-5,1.30209 -0.0389,2.83668 -0.11649,4.60375 -3e-5,1.67413 -0.0389,3.44121 -0.11649,5.3013 -0.0777,1.76711 -0.15538,3.53422 -0.23301,5.30129 -4e-5,1.6741 -4e-5,3.16219 0,4.46425 l 0,3.34819 c -4e-5,3.16218 0.19416,5.67332 0.5825,7.53342 0.46596,1.86009 1.82513,2.79015 4.07749,2.79015 l 2.4465,-0.41852 c 0.38829,-0.0931 0.73779,-0.13951 1.04849,-0.13951 0.3883,-0.0931 0.66013,-0.13951 0.8155,-0.13951 0.15531,0 0.34946,0.0464 0.5825,0.13951 0.31061,0 0.73779,0.0931 1.2815,0.27901 2.01929,-3.4412 3.26195,-7.30089 3.72799,-11.57914 0.46596,-4.37123 0.77662,-9.06797 0.932,-14.09028 0.38829,-1.39504 0.66012,-2.79012 0.8155,-4.18523 0.23295,-1.48806 0.34945,-3.02265 0.3495,-4.60376 -5e-5,-1.02301 -0.11656,-2.5576 -0.3495,-4.60376 -0.15537,-2.04609 -0.34955,-4.1387 -0.5825,-6.27784 l 0,0.1395 c -0.23305,-2.04605 -0.46604,-3.99916 -0.699,-5.85932 -0.23305,-1.95308 -0.34954,-3.30163 -0.3495,-4.04573 -4e-5,-2.41809 0.2718,-4.60368 0.8155,-6.55686 0.54362,-2.04606 0.81545,-4.32467 0.8155,-6.83588 -5e-5,-0.93 -0.11656,-2.23206 -0.3495,-3.90622 -0.15538,-1.76704 -0.34955,-3.53411 -0.5825,-5.30129 -0.15537,-1.86003 -0.34954,-3.58061 -0.5825,-5.16179 -0.15537,-1.67402 -0.23305,-2.83658 -0.23301,-3.48769 -5e-5,-2.60406 0.42712,-4.9292 1.2815,-6.97539 l 7.33949,-0.69754 c 1.70861,-0.74396 3.80561,-1.11596 6.29099,-1.11606 0.62126,10e-5 1.35908,0.0467 2.21349,0.1395 0.85426,0.0931 1.74744,0.18625 2.6795,0.27902 0.93194,10e-5 1.82508,0.0467 2.67949,0.13951 0.85427,0.0931 1.63094,0.13951 2.33,0.13951 1.08726,1e-4 2.05808,-0.0464 2.9125,-0.13951 0.85426,-0.0928 1.70858,-0.3254 2.56299,-0.69754 l 0.8155,-1.25557"
           style="font-size:40px;fill:none;stroke:#000000;stroke-width:4;stroke-linecap:square;stroke-linejoin:round;stroke-miterlimit:4;stroke-opacity:1;stroke-dasharray:none;font-family:Diogenes;-inkscape-font-specification:Diogenes"
           id="path5388"
           inkscape:connector-curvature="0" />
        <path
           inkscape:export-ydpi="399.96063"
           inkscape:export-xdpi="399.96063"
           inkscape:export-filename="/Users/jas/projects/TriggerRally/misc/codeartemis/path3125.png"
           d="m 418.69886,806.49278 c 5.12593,-2.51114 7.76661,-5.95235 7.92198,-10.32358 -7.61137,-5.85932 -13.55286,-10.92809 -17.82445,-15.20634 -4.19402,-4.27822 -7.49484,-7.53339 -9.9025,-9.76554 -1.78633,-1.39505 -3.57266,-2.83662 -5.35898,-4.32474 -1.70868,-1.48806 -3.22317,-3.02265 -4.5435,-4.60376 2.09697,-0.37196 4.77647,-0.79049 8.03848,-1.25557 3.33964,-0.558 6.71813,-1.16252 10.13548,-1.8136 3.41731,-0.65098 6.64047,-1.39504 9.66949,-2.23213 3.02896,-0.92999 5.24243,-1.99956 6.6405,-3.20867 l 0,-5.71982 c -7e-5,-2.8831 -1.00972,-4.83621 -3.02899,-5.85933 l -0.46599,-0.1395 c -0.69904,0.0931 -1.9417,0.23262 -3.728,0.41852 -1.78639,0.18589 -3.76688,0.46508 -5.94149,0.83704 -2.09705,0.27902 -4.2717,0.65109 -6.52401,1.11607 -2.17468,0.46508 -4.03865,0.97662 -5.592,1.53458 -1.70865,0.7441 -3.30083,1.25564 -4.77647,1.53459 -1.47568,0.27901 -2.87368,0.41859 -4.194,0.41852 0.23302,-0.18589 0.54365,-0.51147 0.932,-0.97655 l 4.194,-3.4877 c 0.23301,-1.02301 0.89314,-2.32507 1.98048,-3.90621 1.16499,-1.58101 2.40765,-3.16212 3.72799,-4.74327 l 2.563,-3.06917 c 1.08729,-1.67402 2.17465,-3.11559 3.26201,-4.32474 1.16496,-1.30199 2.32995,-2.55756 3.49498,-3.76671 l -0.11649,0 c 1.39797,-1.48799 2.95129,-3.11559 4.65998,-4.88277 1.70862,-1.86002 3.33964,-3.72011 4.89299,-5.58031 1.63095,-1.953 3.06781,-3.85962 4.31051,-5.71982 1.3203,-1.953 2.2911,-3.7666 2.9125,-5.4408 -0.0778,-0.37193 -0.19426,-0.83694 -0.3495,-1.39508 l 0.3495,0 c -0.15555,-0.18589 -0.34957,-0.46491 -0.58251,-0.83704 -0.23298,-0.37193 -0.46606,-0.65095 -0.699,-0.83705 l -1.04847,-1.25557 c -0.46607,-0.65094 -1.00973,-1.25547 -1.63103,-1.8136 -0.54369,-0.55793 -1.20388,-0.83694 -1.98048,-0.83705 -0.5437,1.1e-4 -1.39804,0.32575 -2.563,0.97656 l 0,-0.13951 c -2.95139,1.86019 -5.82501,4.09232 -8.62099,6.69637 -2.79601,2.60423 -5.59203,5.62691 -8.38797,9.068 l -14.32949,17.43847 c -1.631,1.02312 -3.22317,2.2322 -4.77649,3.62721 -1.47568,1.39514 -2.95132,2.92973 -4.427,4.60375 -0.54367,2.79023 -2.05817,5.67336 -4.54349,8.64948 l -7.80549,9.48653 c 6.83467,9.02155 14.05766,17.299 21.66897,24.83238 7.68896,7.53342 15.76627,14.46231 24.23195,20.78665 1.16499,2.79016 3.65029,4.60376 7.45599,5.44081 l 0.699,0"
           style="font-size:40px;fill:none;stroke:#000000;stroke-width:4;stroke-linecap:square;stroke-linejoin:round;stroke-miterlimit:4;stroke-opacity:1;stroke-dasharray:none;font-family:Diogenes;-inkscape-font-specification:Diogenes"
           id="path5390"
           inkscape:connector-curvature="0" />
        <path
           inkscape:export-ydpi="399.96063"
           inkscape:export-xdpi="399.96063"
           inkscape:export-filename="/Users/jas/projects/TriggerRally/misc/codeartemis/path3125.png"
           d="m 530.26384,805.79524 c 3.72786,0 5.59185,-2.37163 5.59199,-7.1149 -1.4e-4,-0.18589 -0.0391,-0.46501 -0.11649,-0.83704 -10e-5,-0.372 -0.0778,-1.06954 -0.23297,-2.09262 -1.32044,-4.92926 -2.75727,-10.64908 -4.31051,-17.15945 -1.47575,-6.51034 -3.0291,-13.4392 -4.65998,-20.78666 -1.63109,-7.34735 -3.30093,-14.97378 -5.00948,-22.87927 -1.70876,-7.90535 -3.3786,-15.71778 -5.00952,-23.4373 1.94157,-4.18513 2.9124,-7.0683 2.91251,-8.64948 -1.1e-4,-1.48799 -0.50495,-3.16209 -1.5145,-5.02228 l -1.39801,0 c -0.46609,10e-5 -0.89326,0.0931 -1.28148,0.27901 l -0.93202,0 c -0.69907,1.1e-4 -1.59223,-0.41842 -2.67949,-1.25557 l 0,0.13951 c -0.6214,-0.46491 -1.20391,-0.83694 -1.7475,-1.11606 -0.54374,-0.37193 -1.28156,-0.55793 -2.21347,-0.55803 -1.78643,4.74337 -3.65043,9.57961 -5.59199,14.5088 -1.94174,4.92937 -3.80574,9.76562 -5.592,14.50881 -1.70872,4.74333 -3.22322,9.3006 -4.54349,13.67176 -1.3204,4.3713 -2.21357,8.37054 -2.67952,11.99767 -0.31075,0.7441 -0.77671,1.76714 -1.39797,3.06917 -0.54374,1.30213 -1.16507,2.65068 -1.864,4.04572 -0.6214,1.39511 -1.28155,2.79019 -1.98052,4.18524 -0.62137,1.39511 -1.16503,2.55766 -1.63099,3.48769 l -1.0485,-2.92966 c -1.32038,-1.39505 -2.56304,-3.30163 -3.728,-5.71982 -1.16503,-2.51111 -2.29121,-5.06874 -3.37849,-7.67293 -1.00969,-2.6971 -1.94171,-5.20824 -2.79598,-7.53342 -0.85438,-2.41805 -1.66988,-4.18516 -2.44652,-5.30129 -0.62136,-0.93 -1.28151,-2.7436 -1.98048,-5.4408 -0.69904,-2.69707 -1.47572,-5.62674 -2.32999,-8.78899 -0.85438,-3.2551 -1.86403,-6.46378 -3.02899,-9.62604 -1.0874,-3.16208 -2.36885,-5.62673 -3.84449,-7.39391 -0.1552,-1.58097 -0.62137,-3.02257 -1.39801,-4.32474 -0.69903,-1.30195 -1.28151,-2.18553 -1.74751,-2.65065 -3e-5,0.55814 -0.0387,0.88365 -0.11648,0.97656 -0.0778,0.0931 -0.38836,0.13951 -0.93202,0.13951 l 0,-2.65065 -1.165,0 c -5.59199,1e-4 -8.388,2.79026 -8.38797,8.37046 -3e-5,0.55814 0.0387,1.44168 0.11649,2.65065 0.1552,1.20915 0.31075,2.46472 0.46599,3.76671 0.23298,1.30217 0.38836,2.51124 0.46603,3.6272 0.1552,1.11617 0.23297,1.90669 0.23297,2.37163 -3e-5,1.58118 -0.31075,2.97626 -0.93198,4.18524 -0.93205,10.78865 -2.17468,20.60069 -3.72799,29.43613 -1.47568,8.74253 -2.91251,16.27595 -4.31051,22.60026 -1.39798,6.32437 -2.64068,11.30016 -3.728,14.92733 -1.08732,3.53422 -1.66984,5.48733 -1.74747,5.85932 l 0,-0.1395 c -0.69901,2.13914 -1.24267,4.18523 -1.63102,6.13834 -0.31076,1.95311 -0.46599,3.95271 -0.46599,5.99883 0.85434,0 1.70869,0.0464 2.563,0.13951 0.85431,0.0931 1.70865,0.23263 2.563,0.41852 l 4.54349,0.69754 c 0.699,0 1.32033,-0.0464 1.864,-0.13951 0.62133,-0.18589 1.28148,-0.51154 1.98048,-0.97655 0.77664,-2.51114 1.51446,-5.6268 2.2135,-9.34702 0.77664,-3.72018 1.47565,-7.53342 2.09701,-11.43964 0.6213,-3.9992 1.24263,-7.8124 1.864,-11.43963 0.6213,-3.62717 1.24263,-6.51034 1.864,-8.64948 -4e-5,3e-5 0.11649,-0.93003 0.3495,-2.79016 0.23298,-1.86006 0.54363,-4.1852 0.93198,-6.97539 0.38829,-2.8831 0.89317,-5.99876 1.5145,-9.34702 0.69897,-3.44113 1.47564,-6.6963 2.32999,-9.76554 l 5.24249,7.81244 c 3.26197,10.41662 6.25211,19.48463 8.97049,27.20401 2.71831,7.62643 5.32013,13.9973 7.80549,19.11256 0.1552,1.11606 0.31075,2.23212 0.46599,3.34819 0.1552,1.11606 0.38832,2.13914 0.69901,3.06917 0.38828,0.83704 0.85427,1.53458 1.398,2.09261 0.62127,0.46502 1.47561,0.69754 2.563,0.69754 l 1.165,0 c 0.85427,-1.20908 1.66977,-2.69714 2.44648,-4.46425 0.77664,-1.86009 1.55328,-3.72018 2.33002,-5.58031 0.77657,-1.86009 1.51443,-3.58067 2.21346,-5.16178 0.77661,-1.58108 1.5921,-2.74363 2.44652,-3.4877 0.23298,-2.79012 0.7766,-5.71978 1.63098,-8.78899 0.85428,-3.16215 1.86397,-6.37083 3.02899,-9.62603 1.16493,-3.25514 2.44641,-6.60332 3.84452,-10.04456 1.47558,-3.44113 2.99007,-6.92883 4.54349,-10.46308 l 1.63099,-4.04573 c 2.48522,7.44048 4.69872,16.41546 6.6405,26.925 l 5.82497,32.64482 2.33002,3.6272 c 1.00955,1.67409 2.05806,2.92966 3.14548,3.76671 1.16493,0.74403 2.64057,1.11606 4.427,1.11606"
           style="font-size:40px;fill:none;stroke:#000000;stroke-width:4;stroke-linecap:square;stroke-linejoin:round;stroke-miterlimit:4;stroke-opacity:1;stroke-dasharray:none;font-family:Diogenes;-inkscape-font-specification:Diogenes"
           id="path5392"
           inkscape:connector-curvature="0" />
        <path
           inkscape:export-ydpi="399.96063"
           inkscape:export-xdpi="399.96063"
           inkscape:export-filename="/Users/jas/projects/TriggerRally/misc/codeartemis/path3125.png"
           d="m 540.24095,751.38721 c 0,4.46429 0.0778,8.83555 0.23297,13.11373 0.15521,4.27829 0.38836,8.51001 0.69901,12.69521 l -0.46599,23.71632 c 1.00968,2.04612 2.05815,3.58071 3.14548,4.60375 1.08732,0.93007 2.17468,1.39508 3.262,1.39508 1.00969,0 1.78633,-0.27902 2.32999,-0.83705 0.62133,-0.65104 1.08732,-1.39507 1.39801,-2.23212 0.31075,-0.83705 0.50481,-1.72058 0.58251,-2.65065 0.15521,-1.02304 0.23298,-1.90662 0.23298,-2.65064 0,-0.46502 -0.0387,-0.83705 -0.11649,-1.11607 0,-0.27901 0,-0.5115 0,-0.69754 l 0,-5.58031 c 0,-3.06917 -0.0387,-6.74286 -0.11649,-11.02111 0,-4.37123 -0.0387,-8.69594 -0.11649,-12.97422 -0.0778,-4.27818 -0.1552,-8.1844 -0.23297,-11.71865 0,-3.53415 0,-6.04529 0,-7.53342 0,-18.22895 1.04847,-33.48176 3.14548,-45.75854 0.1552,-0.37193 0.23298,-0.69744 0.23298,-0.97656 0.0778,-0.27901 0.11648,-0.65094 0.11648,-1.11606 0,-2.97605 -1.59216,-4.55716 -4.7765,-4.74326 -0.54366,0.37213 -1.20381,0.55813 -1.98048,0.55803 -0.31076,1e-4 -0.89317,-0.0464 -1.74751,-0.13951 -0.77668,-0.0928 -1.3203,-0.13951 -1.63099,-0.13951 -1.864,1.1e-4 -3.18433,0.55814 -3.96101,1.6741 -0.77664,1.11616 -1.16499,2.97625 -1.16499,5.58031 0,4.46435 0.77667,8.13804 2.32999,11.02111 -0.93198,13.95084 -1.39797,26.46002 -1.39797,37.52758"
           style="font-size:40px;fill:none;stroke:#000000;stroke-width:4;stroke-linecap:square;stroke-linejoin:round;stroke-miterlimit:4;stroke-opacity:1;stroke-dasharray:none;font-family:Diogenes;-inkscape-font-specification:Diogenes"
           id="path5394"
           inkscape:connector-curvature="0" />
        <path
           inkscape:export-ydpi="399.96063"
           inkscape:export-xdpi="399.96063"
           d="m 595.56927,714.83618 c 2.40759,-0.83694 4.27159,-2.65054 5.59199,-5.4408 1.32027,-2.88307 2.2911,-6.64978 2.91247,-11.30013 -0.85438,-0.18589 -1.74754,-0.41842 -2.67949,-0.69754 -0.93205,-0.37192 -1.86403,-0.69743 -2.79598,-0.97655 -0.93202,-0.27902 -1.7864,-0.55793 -2.563,-0.83705 -0.69904,-0.27901 -1.28152,-0.51143 -1.74751,-0.69754 l -13.39745,15.06684 c -1.94171,2.23223 -3.53387,4.18534 -4.77651,5.85933 -1.16502,1.67416 -2.25235,3.30176 -3.262,4.88277 -1.00965,1.48816 -2.05816,3.02275 -3.14548,4.60375 -1.08736,1.48817 -2.48537,3.16226 -4.19399,5.02228 -0.93201,1.11614 -1.63102,2.18571 -2.09701,3.20868 -0.46599,1.02312 -0.699,2.1857 -0.699,3.4877 0,1.58114 0.62133,3.30173 1.864,5.16178 1.32033,1.86016 2.83483,3.72026 4.54348,5.58031 1.78633,1.86016 3.57266,3.62724 5.35902,5.3013 1.86396,1.58114 3.33964,2.8832 4.42696,3.90621 1.32031,1.20912 2.60182,2.37167 3.84452,3.4877 1.24263,1.02311 2.36878,2.04616 3.3785,3.06917 l 0.69897,5.30129 c -0.93202,2.23216 -2.13583,4.23176 -3.61148,5.99884 -1.47571,1.67413 -3.10669,3.2552 -4.89299,4.74326 -1.78636,1.39511 -3.68917,2.74366 -5.70848,4.04573 -1.9417,1.20907 -3.88337,2.37166 -5.82501,3.48769 -3.10666,2.60416 -5.39783,5.30129 -6.87347,8.09145 -1.47568,2.69714 -2.2135,5.39431 -2.2135,8.09145 l 0,2.37163 c 1.08732,0.46501 1.98048,0.79056 2.67949,0.97655 0.77664,0.1859 1.43682,0.27902 1.98049,0.27902 2.48533,0 4.69883,-0.79056 6.64049,-2.37163 2.01931,-1.67409 4.38815,-3.90622 7.10649,-6.69637 l 2.44648,-2.51114 c 0.46599,-0.55803 0.9708,-0.97656 1.5145,-1.25557 0.54366,-0.372 1.04847,-0.74403 1.51453,-1.11606 0.54363,-0.372 1.04844,-0.79053 1.5145,-1.25557 0.46595,-0.46502 0.89312,-1.20905 1.28148,-2.23213 0.38828,-1.02304 0.93198,-1.90658 1.63098,-2.65065 0.77664,-0.74403 1.59217,-1.39504 2.44652,-1.9531 0.1552,-0.93003 0.85427,-1.90659 2.09697,-2.92967 1.24263,-1.02304 2.56297,-2.1856 3.96101,-3.48769 1.47561,-1.39504 2.79598,-2.97616 3.96101,-4.74326 1.16493,-1.76708 1.78629,-3.76668 1.864,-5.99884 -1.32041,-2.79012 -2.87372,-5.53375 -4.66001,-8.23096 -1.70869,-2.6971 -3.53387,-5.30126 -5.47547,-7.81243 -1.94171,-2.51107 -3.96105,-4.8827 -6.05802,-7.1149 -2.09701,-2.23205 -4.15521,-4.23168 -6.17448,-5.99883 0.77664,-0.92999 1.86397,-2.37156 3.26201,-4.32474 1.47564,-1.95304 2.99014,-4.09215 4.54349,-6.41736 1.63095,-2.32503 3.22311,-4.65017 4.77646,-6.97538 1.55332,-2.32504 2.8348,-4.32467 3.84452,-5.99884 l 1.165,0"
           style="font-size:40px;fill:none;stroke:#000000;stroke-width:4;stroke-linecap:square;stroke-linejoin:round;stroke-miterlimit:4;stroke-opacity:1;stroke-dasharray:none;font-family:Diogenes;-inkscape-font-specification:Diogenes"
           id="path5396"
           inkscape:connector-curvature="0" />
      </g>
    </clipPath>
    <clipPath
       clipPathUnits="userSpaceOnUse"
       id="clipPath5430">
      <g
         style="fill:none"
         id="g5432">
        <path
           inkscape:export-ydpi="399.96063"
           inkscape:export-xdpi="399.96063"
           inkscape:export-filename="/Users/jas/projects/TriggerRally/misc/codeartemis/path3125.png"
           sodipodi:nodetypes="cccccccccccccccccccccccccccccccccccsccc"
           d="m 294.8145,687.45789 c 7.60502,-3.61604 11.51941,-8.57136 11.74318,-14.86595 -5.03288,-3.88389 -9.50647,-7.56686 -13.42078,-11.04901 -3.91447,-3.48211 -7.43741,-6.62937 -10.56886,-9.44188 -3.01974,-2.94637 -5.70389,-5.55796 -8.05247,-7.83476 -2.3487,-2.41066 -4.47365,-4.41957 -6.37487,-6.02673 -6.37492,-5.08918 -11.4077,-9.64275 -15.09837,-13.6606 -3.69075,-4.15168 -8.34098,-6.92655 -9.57119,-11.61408 0.78285,-1.6071 2.55915,-4.20107 4.01309,-5.80824 1.45388,-1.60706 2.80253,-3.87208 4.70385,-5.47928 l 5.87158,-5.22317 c 0.44734,-1.60706 1.45387,-3.48204 3.01968,-5.62495 1.67755,-2.27663 5.27187,-4.48643 7.06136,-6.62941 l 3.85847,-4.4196 c -5e-5,-1.20528 0.67098,-2.67841 2.01312,-4.41961 1.45386,-1.87484 3.2433,-3.88376 5.36832,-6.02673 2.12488,-2.27663 4.52944,-4.68733 7.21366,-7.23209 2.68408,-2.67841 5.25639,-5.35695 7.71695,-8.03564 2.46039,-2.8123 4.69719,-5.62478 6.71039,-8.43743 2.12486,-2.94627 3.69063,-5.82567 4.69727,-8.63832 -0.11195,-0.53557 -0.27971,-1.20517 -0.50328,-2.00891 l 0.33551,0 -0.33551,-0.40179 c -0.33559,-0.53557 -0.67113,-1.00428 -1.00655,-1.40623 -0.33559,-0.40179 -0.78297,-0.87036 -1.34208,-1.40624 l -0.8388,-1.00446 c -0.67113,-0.80339 -1.39809,-1.60695 -2.18088,-2.41069 -0.67112,-0.93735 -1.56584,-1.40607 -2.68416,-1.40624 -0.8948,1.7e-4 -2.18095,0.46909 -3.85847,1.40624 l 0,-0.20089 c -8.38806,5.22334 -16.55235,12.79024 -24.49292,22.7007 l -20.46668,24.9105 c -4.58547,2.94655 -9.05906,7.03126 -13.42079,12.25436 -1.00657,4.15182 -6.44385,10.56262 -9.79903,14.58038 l -7.81573,13.66059 c 9.84189,12.99104 20.24298,22.58453 31.2033,33.43262 10.96026,10.84812 22.53567,20.82572 34.72627,29.93279 1.67752,4.28567 5.2564,6.89726 10.73662,7.83475 l 0.8388,0"
           style="font-size:40px;fill:none;stroke:#000000;stroke-width:4;stroke-linecap:square;stroke-linejoin:round;stroke-miterlimit:4;stroke-opacity:1;stroke-dasharray:none;font-family:Diogenes;-inkscape-font-specification:Diogenes"
           id="path5434"
           inkscape:connector-curvature="0" />
        <path
           inkscape:export-ydpi="399.96063"
           inkscape:export-xdpi="399.96063"
           inkscape:export-filename="/Users/jas/projects/TriggerRally/misc/codeartemis/path3125.png"
           d="m 352.66152,682.79774 c 3.87918,-1.11606 7.61736,-3.06917 11.21452,-5.85933 3.66759,-2.79015 6.98257,-6.18483 9.94497,-10.18406 3.03278,-3.9992 5.60718,-8.41696 7.72321,-13.25324 2.1864,-4.83624 3.73809,-9.85852 4.65508,-15.06684 -0.0706,-0.46498 -0.21166,-2.46458 -0.42319,-5.99883 -0.21166,-3.53415 -0.42327,-8.74243 -0.63478,-15.62487 -0.28222,-8.46341 -1.44598,-15.48529 -3.49132,-21.06567 -1.97496,-5.67322 -4.61989,-10.23049 -7.9348,-13.67176 -3.31506,-3.4411 -7.19429,-5.85922 -11.63772,-7.2544 -4.44355,-1.48799 -9.23969,-2.23202 -14.38845,-2.23213 -3.59715,1.1e-4 -7.12373,0.55814 -10.57974,1.6741 -3.45608,1.02315 -6.80633,2.55773 -10.05076,4.60375 -0.49374,1.39518 -1.44592,2.79026 -2.85653,4.18524 -1.41065,1.30216 -2.89182,2.60422 -4.44349,3.90621 -1.55171,1.20915 -2.99761,2.41823 -4.3377,3.6272 -1.34011,1.11617 -2.15122,2.23223 -2.43334,3.34819 -2.25702,6.51044 -3.98504,12.9278 -5.18407,19.25207 -1.19904,6.32441 -1.79856,12.55577 -1.79856,18.69404 0,14.97385 3.66764,27.71555 11.00294,38.22512 9.59227,9.1145 18.97296,13.67176 28.14211,13.67176 2.75069,0 5.25456,-0.3254 7.51162,-0.97655 m 20.5247,-67.80077 c -0.0706,1.58115 -0.38799,3.39475 -0.95217,5.4408 -0.4938,2.04616 -1.02279,3.95278 -1.58697,5.71982 1.41056,3.34822 2.11588,6.74293 2.11595,10.18407 -7e-5,3.72025 -0.84645,7.53345 -2.53914,11.43963 -1.69282,3.81324 -4.12616,7.67296 -7.30002,11.57915 -0.35272,0.46505 -0.91697,0.69757 -1.69276,0.69754 -0.28219,3e-5 -0.52904,-0.0464 -0.74058,-0.13951 l -0.95218,0 c -2.116,3e-5 -3.24451,1.20908 -3.38552,3.6272 -1.76334,1.02308 -3.70295,1.8136 -5.81885,2.37163 -2.04547,0.55803 -4.30248,0.83705 -6.77104,0.83705 -1.4812,0 -3.10343,-0.0931 -4.86668,-0.27902 -1.6928,-0.18589 -3.38555,-0.55803 -5.07828,-1.11606 -1.69279,-0.55803 -3.27975,-1.34855 -4.76088,-2.37163 -1.48119,-1.02305 -2.68023,-2.3716 -3.59712,-4.04573 l 0,0.13951 c -0.35267,-0.83701 -0.77586,-2.13911 -1.26956,-3.90622 -0.49375,-1.86009 -1.058,-3.85969 -1.69276,-5.99883 -0.6348,-2.13907 -1.34012,-4.23169 -2.11595,-6.27785 -0.70533,-2.04609 -1.44592,-3.72015 -2.22174,-5.02228 0.84635,-2.5111 1.26954,-5.48726 1.26956,-8.92849 -2e-5,-0.83702 -0.0705,-2.09255 -0.2116,-3.76671 -0.14107,-1.76704 -0.21159,-3.67366 -0.21159,-5.71982 l 0,-2.65065 c 1.19901,-3.99916 2.64491,-7.81236 4.33769,-11.43963 1.69273,-3.62714 3.59709,-7.20781 5.71306,-10.7421 0.70529,-0.0928 1.65746,-0.3254 2.85653,-0.69754 1.26954,-0.37193 2.53911,-0.74396 3.80871,-1.11606 1.34006,-0.46495 2.57437,-0.88347 3.70291,-1.25557 1.199,-0.37193 2.08064,-0.55793 2.64494,-0.55803 0.70527,1e-4 1.58691,0.18624 2.64493,0.55803 2.18644,-1.30199 4.58451,-1.95301 7.19423,-1.95311 1.97483,1e-4 3.80865,0.27902 5.50146,0.83705 1.76324,0.46512 3.42073,1.25567 4.97248,2.37163 1.55163,1.11613 3.10333,2.65072 4.65509,4.60375 1.55163,1.8602 3.17385,4.18531 4.86668,6.97539 0.77578,1.48817 1.34003,2.79023 1.69276,3.90622 0.42311,1.02311 0.63471,1.99967 0.63478,2.92966 -7e-5,0.65112 -0.0706,1.25564 -0.2116,1.8136 -0.14114,0.46509 -0.28222,0.93014 -0.42319,1.39508 l -0.21159,0.55803"
           style="font-size:40px;fill:none;stroke:#000000;stroke-width:4;stroke-linecap:square;stroke-linejoin:round;stroke-miterlimit:4;stroke-opacity:1;stroke-dasharray:none;font-family:Diogenes;-inkscape-font-specification:Diogenes"
           id="path5436"
           inkscape:connector-curvature="0" />
        <path
           inkscape:export-ydpi="399.96063"
           inkscape:export-xdpi="399.96063"
           inkscape:export-filename="/Users/jas/projects/TriggerRally/misc/codeartemis/path3125.png"
           d="m 457.62797,638.9923 c 0.7539,-1.02301 1.54211,-1.95307 2.36469,-2.79015 l 1.95345,-2.92966 -0.41123,0 c 0.27413,-0.93 0.41116,-1.72055 0.41123,-2.37164 -7e-5,-0.46497 -0.27413,-1.53455 -0.8225,-3.20867 -4.31822,-6.04529 -8.43077,-11.25357 -12.33761,-15.62487 -3.90695,-4.37116 -7.67676,-8.18436 -11.30944,-11.43964 -1.02817,-2.41805 -2.29623,-4.46418 -3.8041,-6.13834 -1.43944,-1.767 -3.15298,-3.39461 -5.14065,-4.88277 -1.98778,-1.48799 -4.31818,-2.97608 -6.99129,-4.46425 -2.60465,-1.48799 -5.55196,-3.20857 -8.84193,-5.16179 -2.19341,-1.30195 -3.83842,-2.41801 -4.93506,-3.34818 -1.0967,-1.02294 -1.9192,-1.85999 -2.46754,-2.51114 -0.54833,-0.74393 -0.95957,-1.25547 -1.23374,-1.53459 -0.27413,-0.37192 -0.71972,-0.55792 -1.33655,-0.55803 -0.41127,1.1e-4 -1.09671,0.18625 -2.05629,0.55803 -0.95961,0.37214 -2.33044,0.97666 -4.11254,1.8136 -0.4798,3.1623 -0.7197,6.23147 -0.71969,9.20752 -10e-6,1.20914 0.0685,3.02275 0.20563,5.4408 0.20564,2.32521 0.41125,4.74333 0.61688,7.2544 0.27417,2.51121 0.47978,4.92937 0.61689,7.25441 0.20542,2.23219 0.30831,3.90628 0.30831,5.02227 0,2.79023 -0.10289,5.99891 -0.30831,9.62604 -0.13707,3.62727 -0.30832,7.48696 -0.51408,11.57914 -0.20563,4.09229 -0.44553,8.41703 -0.71969,12.97422 -0.20563,4.46429 -0.3427,9.06804 -0.41125,13.81127 -0.1371,4.18527 -0.27417,8.69601 -0.41125,13.53225 -0.0685,4.74327 -0.17139,9.25401 -0.30846,13.53226 l 7.9166,0 c 0.75397,-1.30207 1.64504,-2.32515 2.67314,-3.06917 1.09667,-0.74403 2.33044,-1.34859 3.70132,-1.81361 l 8.22502,-2.37163 c 3.15295,-3.8132 6.13451,-7.06837 8.94475,-9.76554 2.81021,-2.69714 5.65471,-5.30126 8.53352,-7.81243 2.94724,-2.51111 6.06593,-5.11527 9.35602,-7.81244 3.28997,-2.79012 6.99122,-6.09181 11.1038,-9.90505 0.34284,-0.46498 0.68537,-0.8835 1.02814,-1.25557 0.4112,-0.37196 0.68537,-0.65098 0.82254,-0.83705 l 0.41123,0 m -15.52481,-2.92966 c -0.6169,0.46509 -1.16523,0.9301 -1.645,1.39508 -0.47987,0.46508 -1.02821,0.97659 -1.64501,1.53458 l -25.70332,23.99534 -4.8322,1.53458 c -0.47984,-2.5111 -0.71972,-5.34778 -0.71969,-8.50997 -3e-5,-2.41812 0.17125,-4.83625 0.51405,-7.2544 0.41124,-2.41809 1.0281,-4.74323 1.85064,-6.97539 -0.47984,-1.39504 -0.71972,-2.6971 -0.71968,-3.90622 -4e-5,-1.02301 0.2396,-2.46458 0.71968,-4.32474 0.5483,-1.95307 0.95954,-4.41769 1.23377,-7.39391 -1.5765,-7.16135 -2.36472,-14.55523 -2.36472,-22.18173 0,-1.67402 0.0349,-3.34812 0.10288,-5.02228 0.0687,-1.76701 0.20578,-3.4411 0.41131,-5.02228 5.14058,4.55733 10.34983,7.8125 15.62759,9.76554 1.0281,1.11613 2.50175,2.97623 4.42096,5.58031 1.98767,2.51121 4.04395,5.20835 6.16879,8.09145 2.12477,2.79023 4.14676,5.48737 6.06597,8.09145 1.98767,2.60419 3.52986,4.5573 4.6266,5.85933 -0.9596,1.58114 -2.29619,3.16222 -4.00969,4.74326 l -0.10289,0"
           style="font-size:40px;fill:none;stroke:#000000;stroke-width:4;stroke-linecap:square;stroke-linejoin:round;stroke-miterlimit:4;stroke-opacity:1;stroke-dasharray:none;font-family:Diogenes;-inkscape-font-specification:Diogenes"
           id="path5438"
           inkscape:connector-curvature="0" />
        <path
           inkscape:export-ydpi="399.96063"
           inkscape:export-xdpi="399.96063"
           inkscape:export-filename="/Users/jas/projects/TriggerRally/misc/codeartemis/path3125.png"
           d="m 519.82035,683.21626 c 5.12593,-2.51114 7.7666,-5.95234 7.92201,-10.32357 -7.61136,-5.85933 -13.55286,-10.9281 -17.82448,-15.20635 -4.19402,-4.27821 -7.49485,-7.53338 -9.90247,-9.76554 -1.78636,-1.39504 -3.57269,-2.83661 -5.35902,-4.32474 -1.70865,-1.48806 -3.22315,-3.02264 -4.54349,-4.60376 2.09698,-0.37196 4.77647,-0.79048 8.03851,-1.25557 3.33964,-0.55799 6.71814,-1.16251 10.13548,-1.8136 3.41728,-0.65097 6.64047,-1.39504 9.66946,-2.23212 3.02896,-0.92999 5.24246,-1.99956 6.6405,-3.20868 l 0,-5.71982 c -4e-5,-2.8831 -1.00969,-4.83621 -3.02899,-5.85932 l -0.46599,-0.13951 c -0.69904,0.0931 -1.94171,0.23263 -3.728,0.41852 -1.7864,0.18625 -3.76688,0.46509 -5.9415,0.83705 -2.09701,0.27902 -4.27169,0.65108 -6.52397,1.11606 -2.17472,0.46509 -4.03868,0.97663 -5.592,1.53459 -1.70869,0.7441 -3.30085,1.25564 -4.7765,1.53458 -1.47567,0.27902 -2.87368,0.4186 -4.19398,0.41853 0.23297,-0.1859 0.54362,-0.51147 0.93198,-0.97656 l 4.19398,-3.48769 c 0.23298,-1.02301 0.89317,-2.32507 1.98053,-3.90622 1.16496,-1.58101 2.40762,-3.16212 3.72799,-4.74326 l 2.563,-3.06917 c 1.08729,-1.67403 2.17462,-3.1156 3.26197,-4.32474 1.165,-1.30199 2.32999,-2.55756 3.49502,-3.76671 l -0.11649,0 c 1.39798,-1.48799 2.95129,-3.1156 4.66002,-4.88277 1.70862,-1.86003 3.3396,-3.72012 4.89299,-5.58031 1.63091,-1.95301 3.06777,-3.85963 4.31047,-5.71982 1.3203,-1.95301 2.29114,-3.76661 2.91251,-5.44081 -0.0778,-0.37192 -0.19427,-0.83694 -0.34951,-1.39507 l 0.34951,0 c -0.15521,-0.1859 -0.34958,-0.46491 -0.58252,-0.83705 -0.23298,-0.37193 -0.46603,-0.65094 -0.69897,-0.83705 l -1.0485,-1.25557 c -0.46606,-0.65094 -1.00973,-1.25546 -1.63102,-1.8136 -0.5437,-0.55792 -1.20385,-0.83694 -1.98049,-0.83704 -0.5437,1e-4 -1.39801,0.32575 -2.563,0.97655 l 0,-0.13951 c -2.95136,1.8602 -5.82501,4.09232 -8.62099,6.69638 -2.79601,2.60422 -5.59199,5.6269 -8.38797,9.068 l -14.32947,17.43847 c -1.63102,1.02311 -3.22319,2.23219 -4.7765,3.6272 -1.47568,1.39515 -2.95132,2.92973 -4.427,4.60376 -0.54366,2.79022 -2.05816,5.67336 -4.54349,8.64948 l -7.80549,9.48652 c 6.83466,9.02155 14.05767,17.299 21.66897,24.83238 7.68897,7.53342 15.76626,14.46232 24.23197,20.78666 1.16496,2.79016 3.65029,4.60376 7.45599,5.4408 l 0.69897,0"
           style="font-size:40px;fill:none;stroke:#000000;stroke-width:4;stroke-linecap:square;stroke-linejoin:round;stroke-miterlimit:4;stroke-opacity:1;stroke-dasharray:none;font-family:Diogenes;-inkscape-font-specification:Diogenes"
           id="path5440"
           inkscape:connector-curvature="0" />
      </g>
    </clipPath>
    <clipPath
       clipPathUnits="userSpaceOnUse"
       id="clipPath5468">
      <rect
         ry="26.392071"
         y="862.86871"
         x="158.97903"
         height="343.09717"
         width="416.13043"
         id="rect5470"
         style="fill:#ed8653;fill-opacity:1;fill-rule:nonzero" />
    </clipPath>
    <clipPath
       clipPathUnits="userSpaceOnUse"
       id="clipPath5472">
      <rect
         ry="26.392071"
         y="296.78726"
         x="158.97903"
         height="343.09717"
         width="416.13043"
         id="rect5474"
         style="fill:#ed8653;fill-opacity:1;fill-rule:nonzero" />
    </clipPath>
  </defs>
  <sodipodi:namedview
     id="base"
     pagecolor="#ffffff"
     bordercolor="#666666"
     borderopacity="1.0"
     inkscape:pageopacity="0.0"
     inkscape:pageshadow="2"
     inkscape:zoom="0.76"
     inkscape:cx="591.69256"
     inkscape:cy="245.14412"
     inkscape:document-units="px"
     inkscape:current-layer="text2985"
     showgrid="false"
     inkscape:window-width="1436"
     inkscape:window-height="856"
     inkscape:window-x="4"
     inkscape:window-y="0"
     inkscape:window-maximized="1"
     inkscape:snap-global="false"
     fit-margin-top="0"
     fit-margin-left="0"
     fit-margin-right="0"
     fit-margin-bottom="0">
    <inkscape:grid
       type="xygrid"
       id="grid4002"
       units="mm"
       empspacing="5"
       visible="true"
       enabled="true"
       snapvisiblegridlinesonly="true"
       spacingx="5mm"
       spacingy="5mm" />
  </sodipodi:namedview>
  <metadata
     id="metadata7">
    <rdf:RDF>
      <cc:Work
         rdf:about="">
        <dc:format>image/svg+xml</dc:format>
        <dc:type
           rdf:resource="http://purl.org/dc/dcmitype/StillImage" />
        <dc:title></dc:title>
      </cc:Work>
    </rdf:RDF>
  </metadata>
  <g
     inkscape:label="Layer 1"
     inkscape:groupmode="layer"
     id="layer1"
     transform="translate(-108.99641,-467.18844)">
    <g
       style="font-size:72px;font-style:normal;font-variant:normal;font-weight:normal;font-stretch:normal;line-height:125%;letter-spacing:0px;word-spacing:0px;fill:#000000;fill-opacity:1;stroke:none;font-family:Diogenes;-inkscape-font-specification:Diogenes"
       id="text2985">
      <rect
         style="fill:#ed8653;fill-opacity:1;fill-rule:nonzero"
         id="rect5452"
         width="536.8429"
         height="435.42889"
         x="108.99641"
         y="467.18845"
         ry="33.494507"
         inkscape:export-filename="/Users/jas/projects/TriggerRally/misc/codeartemis/path5456.png"
         inkscape:export-xdpi="400"
         inkscape:export-ydpi="400" />
      <g
         id="g5276"
         style="fill:#fce9e0;fill-opacity:1"
         transform="translate(2.8919193,-4)"
         inkscape:export-filename="/Users/jas/projects/TriggerRally/misc/codeartemis/path5456.png"
         inkscape:export-xdpi="400"
         inkscape:export-ydpi="400">
        <path
           inkscape:connector-curvature="0"
           id="path5113"
           style="font-size:40px;fill:#fce9e0;fill-opacity:1;fill-rule:nonzero;font-family:Diogenes;-inkscape-font-specification:Diogenes"
           d="m 294.8145,687.45789 c 7.60502,-3.61604 11.51941,-8.57136 11.74318,-14.86595 -5.03288,-3.88389 -9.50647,-7.56686 -13.42078,-11.04901 -3.91447,-3.48211 -7.43741,-6.62937 -10.56886,-9.44188 -3.01974,-2.94637 -5.70389,-5.55796 -8.05247,-7.83476 -2.3487,-2.41066 -4.47365,-4.41957 -6.37487,-6.02673 -6.37492,-5.08918 -11.4077,-9.64275 -15.09837,-13.6606 -3.69075,-4.15168 -8.34098,-6.92655 -9.57119,-11.61408 0.78285,-1.6071 2.55915,-4.20107 4.01309,-5.80824 1.45388,-1.60706 2.80253,-3.87208 4.70385,-5.47928 l 5.87158,-5.22317 c 0.44734,-1.60706 1.45387,-3.48204 3.01968,-5.62495 1.67755,-2.27663 5.27187,-4.48643 7.06136,-6.62941 l 3.85847,-4.4196 c -5e-5,-1.20528 0.67098,-2.67841 2.01312,-4.41961 1.45386,-1.87484 3.2433,-3.88376 5.36832,-6.02673 2.12488,-2.27663 4.52944,-4.68733 7.21366,-7.23209 2.68408,-2.67841 5.25639,-5.35695 7.71695,-8.03564 2.46039,-2.8123 4.69719,-5.62478 6.71039,-8.43743 2.12486,-2.94627 3.69063,-5.82567 4.69727,-8.63832 -0.11195,-0.53557 -0.27971,-1.20517 -0.50328,-2.00891 l 0.33551,0 -0.33551,-0.40179 c -0.33559,-0.53557 -0.67113,-1.00428 -1.00655,-1.40623 -0.33559,-0.40179 -0.78297,-0.87036 -1.34208,-1.40624 l -0.8388,-1.00446 c -0.67113,-0.80339 -1.39809,-1.60695 -2.18088,-2.41069 -0.67112,-0.93735 -1.56584,-1.40607 -2.68416,-1.40624 -0.8948,1.7e-4 -2.18095,0.46909 -3.85847,1.40624 l 0,-0.20089 c -8.38806,5.22334 -16.55235,12.79024 -24.49292,22.7007 l -20.46668,24.9105 c -4.58547,2.94655 -9.05906,7.03126 -13.42079,12.25436 -1.00657,4.15182 -6.44385,10.56262 -9.79903,14.58038 l -7.81573,13.66059 c 9.84189,12.99104 20.24298,22.58453 31.2033,33.43262 10.96026,10.84812 22.53567,20.82572 34.72627,29.93279 1.67752,4.28567 5.2564,6.89726 10.73662,7.83475 l 0.8388,0"
           sodipodi:nodetypes="cccccccccccccccccccccccccccccccccccsccc"
           inkscape:export-filename="/Users/jas/projects/TriggerRally/misc/codeartemis/path3125.png"
           inkscape:export-xdpi="399.96063"
           inkscape:export-ydpi="399.96063" />
        <path
           inkscape:connector-curvature="0"
           id="path5115"
           style="font-size:40px;fill:#fce9e0;fill-opacity:1;fill-rule:nonzero;font-family:Diogenes;-inkscape-font-specification:Diogenes"
           d="m 352.66152,682.79774 c 3.87918,-1.11606 7.61736,-3.06917 11.21452,-5.85933 3.66759,-2.79015 6.98257,-6.18483 9.94497,-10.18406 3.03278,-3.9992 5.60718,-8.41696 7.72321,-13.25324 2.1864,-4.83624 3.73809,-9.85852 4.65508,-15.06684 -0.0706,-0.46498 -0.21166,-2.46458 -0.42319,-5.99883 -0.21166,-3.53415 -0.42327,-8.74243 -0.63478,-15.62487 -0.28222,-8.46341 -1.44598,-15.48529 -3.49132,-21.06567 -1.97496,-5.67322 -4.61989,-10.23049 -7.9348,-13.67176 -3.31506,-3.4411 -7.19429,-5.85922 -11.63772,-7.2544 -4.44355,-1.48799 -9.23969,-2.23202 -14.38845,-2.23213 -3.59715,1.1e-4 -7.12373,0.55814 -10.57974,1.6741 -3.45608,1.02315 -6.80633,2.55773 -10.05076,4.60375 -0.49374,1.39518 -1.44592,2.79026 -2.85653,4.18524 -1.41065,1.30216 -2.89182,2.60422 -4.44349,3.90621 -1.55171,1.20915 -2.99761,2.41823 -4.3377,3.6272 -1.34011,1.11617 -2.15122,2.23223 -2.43334,3.34819 -2.25702,6.51044 -3.98504,12.9278 -5.18407,19.25207 -1.19904,6.32441 -1.79856,12.55577 -1.79856,18.69404 0,14.97385 3.66764,27.71555 11.00294,38.22512 9.59227,9.1145 18.97296,13.67176 28.14211,13.67176 2.75069,0 5.25456,-0.3254 7.51162,-0.97655 m 20.5247,-67.80077 c -0.0706,1.58115 -0.38799,3.39475 -0.95217,5.4408 -0.4938,2.04616 -1.02279,3.95278 -1.58697,5.71982 1.41056,3.34822 2.11588,6.74293 2.11595,10.18407 -7e-5,3.72025 -0.84645,7.53345 -2.53914,11.43963 -1.69282,3.81324 -4.12616,7.67296 -7.30002,11.57915 -0.35272,0.46505 -0.91697,0.69757 -1.69276,0.69754 -0.28219,3e-5 -0.52904,-0.0464 -0.74058,-0.13951 l -0.95218,0 c -2.116,3e-5 -3.24451,1.20908 -3.38552,3.6272 -1.76334,1.02308 -3.70295,1.8136 -5.81885,2.37163 -2.04547,0.55803 -4.30248,0.83705 -6.77104,0.83705 -1.4812,0 -3.10343,-0.0931 -4.86668,-0.27902 -1.6928,-0.18589 -3.38555,-0.55803 -5.07828,-1.11606 -1.69279,-0.55803 -3.27975,-1.34855 -4.76088,-2.37163 -1.48119,-1.02305 -2.68023,-2.3716 -3.59712,-4.04573 l 0,0.13951 c -0.35267,-0.83701 -0.77586,-2.13911 -1.26956,-3.90622 -0.49375,-1.86009 -1.058,-3.85969 -1.69276,-5.99883 -0.6348,-2.13907 -1.34012,-4.23169 -2.11595,-6.27785 -0.70533,-2.04609 -1.44592,-3.72015 -2.22174,-5.02228 0.84635,-2.5111 1.26954,-5.48726 1.26956,-8.92849 -2e-5,-0.83702 -0.0705,-2.09255 -0.2116,-3.76671 -0.14107,-1.76704 -0.21159,-3.67366 -0.21159,-5.71982 l 0,-2.65065 c 1.19901,-3.99916 2.64491,-7.81236 4.33769,-11.43963 1.69273,-3.62714 3.59709,-7.20781 5.71306,-10.7421 0.70529,-0.0928 1.65746,-0.3254 2.85653,-0.69754 1.26954,-0.37193 2.53911,-0.74396 3.80871,-1.11606 1.34006,-0.46495 2.57437,-0.88347 3.70291,-1.25557 1.199,-0.37193 2.08064,-0.55793 2.64494,-0.55803 0.70527,1e-4 1.58691,0.18624 2.64493,0.55803 2.18644,-1.30199 4.58451,-1.95301 7.19423,-1.95311 1.97483,1e-4 3.80865,0.27902 5.50146,0.83705 1.76324,0.46512 3.42073,1.25567 4.97248,2.37163 1.55163,1.11613 3.10333,2.65072 4.65509,4.60375 1.55163,1.8602 3.17385,4.18531 4.86668,6.97539 0.77578,1.48817 1.34003,2.79023 1.69276,3.90622 0.42311,1.02311 0.63471,1.99967 0.63478,2.92966 -7e-5,0.65112 -0.0706,1.25564 -0.2116,1.8136 -0.14114,0.46509 -0.28222,0.93014 -0.42319,1.39508 l -0.21159,0.55803"
           inkscape:export-filename="/Users/jas/projects/TriggerRally/misc/codeartemis/path3125.png"
           inkscape:export-xdpi="399.96063"
           inkscape:export-ydpi="399.96063" />
        <path
           inkscape:connector-curvature="0"
           id="path5117"
           style="font-size:40px;fill:#fce9e0;fill-opacity:1;fill-rule:nonzero;font-family:Diogenes;-inkscape-font-specification:Diogenes"
           d="m 457.62797,638.9923 c 0.7539,-1.02301 1.54211,-1.95307 2.36469,-2.79015 l 1.95345,-2.92966 -0.41123,0 c 0.27413,-0.93 0.41116,-1.72055 0.41123,-2.37164 -7e-5,-0.46497 -0.27413,-1.53455 -0.8225,-3.20867 -4.31822,-6.04529 -8.43077,-11.25357 -12.33761,-15.62487 -3.90695,-4.37116 -7.67676,-8.18436 -11.30944,-11.43964 -1.02817,-2.41805 -2.29623,-4.46418 -3.8041,-6.13834 -1.43944,-1.767 -3.15298,-3.39461 -5.14065,-4.88277 -1.98778,-1.48799 -4.31818,-2.97608 -6.99129,-4.46425 -2.60465,-1.48799 -5.55196,-3.20857 -8.84193,-5.16179 -2.19341,-1.30195 -3.83842,-2.41801 -4.93506,-3.34818 -1.0967,-1.02294 -1.9192,-1.85999 -2.46754,-2.51114 -0.54833,-0.74393 -0.95957,-1.25547 -1.23374,-1.53459 -0.27413,-0.37192 -0.71972,-0.55792 -1.33655,-0.55803 -0.41127,1.1e-4 -1.09671,0.18625 -2.05629,0.55803 -0.95961,0.37214 -2.33044,0.97666 -4.11254,1.8136 -0.4798,3.1623 -0.7197,6.23147 -0.71969,9.20752 -10e-6,1.20914 0.0685,3.02275 0.20563,5.4408 0.20564,2.32521 0.41125,4.74333 0.61688,7.2544 0.27417,2.51121 0.47978,4.92937 0.61689,7.25441 0.20542,2.23219 0.30831,3.90628 0.30831,5.02227 0,2.79023 -0.10289,5.99891 -0.30831,9.62604 -0.13707,3.62727 -0.30832,7.48696 -0.51408,11.57914 -0.20563,4.09229 -0.44553,8.41703 -0.71969,12.97422 -0.20563,4.46429 -0.3427,9.06804 -0.41125,13.81127 -0.1371,4.18527 -0.27417,8.69601 -0.41125,13.53225 -0.0685,4.74327 -0.17139,9.25401 -0.30846,13.53226 l 7.9166,0 c 0.75397,-1.30207 1.64504,-2.32515 2.67314,-3.06917 1.09667,-0.74403 2.33044,-1.34859 3.70132,-1.81361 l 8.22502,-2.37163 c 3.15295,-3.8132 6.13451,-7.06837 8.94475,-9.76554 2.81021,-2.69714 5.65471,-5.30126 8.53352,-7.81243 2.94724,-2.51111 6.06593,-5.11527 9.35602,-7.81244 3.28997,-2.79012 6.99122,-6.09181 11.1038,-9.90505 0.34284,-0.46498 0.68537,-0.8835 1.02814,-1.25557 0.4112,-0.37196 0.68537,-0.65098 0.82254,-0.83705 l 0.41123,0 m -15.52481,-2.92966 c -0.6169,0.46509 -1.16523,0.9301 -1.645,1.39508 -0.47987,0.46508 -1.02821,0.97659 -1.64501,1.53458 l -25.70332,23.99534 -4.8322,1.53458 c -0.47984,-2.5111 -0.71972,-5.34778 -0.71969,-8.50997 -3e-5,-2.41812 0.17125,-4.83625 0.51405,-7.2544 0.41124,-2.41809 1.0281,-4.74323 1.85064,-6.97539 -0.47984,-1.39504 -0.71972,-2.6971 -0.71968,-3.90622 -4e-5,-1.02301 0.2396,-2.46458 0.71968,-4.32474 0.5483,-1.95307 0.95954,-4.41769 1.23377,-7.39391 -1.5765,-7.16135 -2.36472,-14.55523 -2.36472,-22.18173 0,-1.67402 0.0349,-3.34812 0.10288,-5.02228 0.0687,-1.76701 0.20578,-3.4411 0.41131,-5.02228 5.14058,4.55733 10.34983,7.8125 15.62759,9.76554 1.0281,1.11613 2.50175,2.97623 4.42096,5.58031 1.98767,2.51121 4.04395,5.20835 6.16879,8.09145 2.12477,2.79023 4.14676,5.48737 6.06597,8.09145 1.98767,2.60419 3.52986,4.5573 4.6266,5.85933 -0.9596,1.58114 -2.29619,3.16222 -4.00969,4.74326 l -0.10289,0"
           inkscape:export-filename="/Users/jas/projects/TriggerRally/misc/codeartemis/path3125.png"
           inkscape:export-xdpi="399.96063"
           inkscape:export-ydpi="399.96063" />
        <path
           inkscape:connector-curvature="0"
           id="path5119"
           style="font-size:40px;fill:#fce9e0;fill-opacity:1;fill-rule:nonzero;font-family:Diogenes;-inkscape-font-specification:Diogenes"
           d="m 519.82035,683.21626 c 5.12593,-2.51114 7.7666,-5.95234 7.92201,-10.32357 -7.61136,-5.85933 -13.55286,-10.9281 -17.82448,-15.20635 -4.19402,-4.27821 -7.49485,-7.53338 -9.90247,-9.76554 -1.78636,-1.39504 -3.57269,-2.83661 -5.35902,-4.32474 -1.70865,-1.48806 -3.22315,-3.02264 -4.54349,-4.60376 2.09698,-0.37196 4.77647,-0.79048 8.03851,-1.25557 3.33964,-0.55799 6.71814,-1.16251 10.13548,-1.8136 3.41728,-0.65097 6.64047,-1.39504 9.66946,-2.23212 3.02896,-0.92999 5.24246,-1.99956 6.6405,-3.20868 l 0,-5.71982 c -4e-5,-2.8831 -1.00969,-4.83621 -3.02899,-5.85932 l -0.46599,-0.13951 c -0.69904,0.0931 -1.94171,0.23263 -3.728,0.41852 -1.7864,0.18625 -3.76688,0.46509 -5.9415,0.83705 -2.09701,0.27902 -4.27169,0.65108 -6.52397,1.11606 -2.17472,0.46509 -4.03868,0.97663 -5.592,1.53459 -1.70869,0.7441 -3.30085,1.25564 -4.7765,1.53458 -1.47567,0.27902 -2.87368,0.4186 -4.19398,0.41853 0.23297,-0.1859 0.54362,-0.51147 0.93198,-0.97656 l 4.19398,-3.48769 c 0.23298,-1.02301 0.89317,-2.32507 1.98053,-3.90622 1.16496,-1.58101 2.40762,-3.16212 3.72799,-4.74326 l 2.563,-3.06917 c 1.08729,-1.67403 2.17462,-3.1156 3.26197,-4.32474 1.165,-1.30199 2.32999,-2.55756 3.49502,-3.76671 l -0.11649,0 c 1.39798,-1.48799 2.95129,-3.1156 4.66002,-4.88277 1.70862,-1.86003 3.3396,-3.72012 4.89299,-5.58031 1.63091,-1.95301 3.06777,-3.85963 4.31047,-5.71982 1.3203,-1.95301 2.29114,-3.76661 2.91251,-5.44081 -0.0778,-0.37192 -0.19427,-0.83694 -0.34951,-1.39507 l 0.34951,0 c -0.15521,-0.1859 -0.34958,-0.46491 -0.58252,-0.83705 -0.23298,-0.37193 -0.46603,-0.65094 -0.69897,-0.83705 l -1.0485,-1.25557 c -0.46606,-0.65094 -1.00973,-1.25546 -1.63102,-1.8136 -0.5437,-0.55792 -1.20385,-0.83694 -1.98049,-0.83704 -0.5437,1e-4 -1.39801,0.32575 -2.563,0.97655 l 0,-0.13951 c -2.95136,1.8602 -5.82501,4.09232 -8.62099,6.69638 -2.79601,2.60422 -5.59199,5.6269 -8.38797,9.068 l -14.32947,17.43847 c -1.63102,1.02311 -3.22319,2.23219 -4.7765,3.6272 -1.47568,1.39515 -2.95132,2.92973 -4.427,4.60376 -0.54366,2.79022 -2.05816,5.67336 -4.54349,8.64948 l -7.80549,9.48652 c 6.83466,9.02155 14.05767,17.299 21.66897,24.83238 7.68897,7.53342 15.76626,14.46232 24.23197,20.78666 1.16496,2.79016 3.65029,4.60376 7.45599,5.4408 l 0.69897,0"
           inkscape:export-filename="/Users/jas/projects/TriggerRally/misc/codeartemis/path3125.png"
           inkscape:export-xdpi="399.96063"
           inkscape:export-ydpi="399.96063" />
      </g>
      <g
         id="g5282"
         style="fill:#fce9e0;fill-opacity:1"
         transform="translate(2.8919193,-4)"
         inkscape:export-filename="/Users/jas/projects/TriggerRally/misc/codeartemis/path5456.png"
         inkscape:export-xdpi="400"
         inkscape:export-ydpi="400">
        <path
           inkscape:connector-curvature="0"
           id="path5121"
           style="font-size:40px;fill:#fce9e0;fill-opacity:1;fill-rule:nonzero;font-family:Diogenes;-inkscape-font-specification:Diogenes"
           d="m 144.83661,809.69926 c 1.45391,1.07142 2.85191,1.60713 4.19399,1.60713 3.24335,0 5.98342,-1.74106 8.22023,-5.22317 2.0131,-7.23208 4.64133,-16.40608 7.88471,-27.52209 3.35517,-11.24987 7.21364,-24.03994 11.57542,-38.37021 0.78284,-0.66957 1.7894,-1.00443 3.01968,-1.00446 1.23019,3e-5 2.96371,0.40178 5.20055,1.20535 2.23675,0.6697 4.64129,1.00449 7.21367,1.00445 0.44728,4e-5 1.06242,4e-5 1.84535,0 0.78282,-0.13393 1.62163,-0.20089 2.5164,-0.20089 0.89466,4e-5 1.78937,4e-5 2.68416,0 0.89465,-0.13393 1.67753,-0.20089 2.34863,-0.20089 1.23017,3e-5 2.34857,0.13393 3.3552,0.40178 1.11833,0.26786 2.1808,0.60271 3.18743,1.00446 2.01304,5.2232 4.4176,11.65172 7.21366,19.28555 2.79592,7.6339 5.98336,16.20522 9.56231,25.71407 -0.11195,0.80356 -0.16783,1.54016 -0.16776,2.2098 -9e-5,0.53571 -9e-5,1.13839 0,1.80802 -9e-5,1.74106 0.22357,3.68304 0.67104,5.82585 0.44728,2.00891 1.11831,4.08478 2.01312,6.22762 l 0,-0.20089 1.34207,4.6205 c 1.90119,0.40178 3.69062,0.66964 5.36832,0.80356 1.78934,0.13393 3.46693,0.20089 5.03279,0.20089 1.23013,0 2.73997,-0.067 4.52951,-0.20089 1.90117,-0.13392 4.02613,-0.46857 6.37487,-1.00445 l 0,-4.41961 c -1.1e-4,-3.08033 -0.78299,-6.8303 -2.34863,-11.2499 -1.45403,-4.5535 -3.07571,-8.90618 -4.86504,-13.05793 -1.6777,-4.15172 -3.29938,-7.76776 -4.86503,-10.84812 -1.45402,-3.08033 -2.18097,-4.82136 -2.18087,-5.22317 -0.22378,-1.07135 -0.50338,-2.00888 -0.83881,-2.81248 -0.33558,-0.93746 -0.61521,-1.80799 -0.83879,-2.61158 -2.34873,-7.76776 -4.36185,-14.46413 -6.03936,-20.08912 -1.67768,-5.75881 -3.29935,-10.91502 -4.86503,-15.46862 -1.454,-4.68739 -2.96383,-8.97307 -4.52951,-12.85704 -1.45399,-4.01775 -3.13159,-8.23646 -5.03279,-12.65614 -1.67767,-4.55339 -3.52302,-9.8436 -5.53607,-15.8704 -2.01318,-6.02656 -3.64143,-8.4713 -5.54264,-14.89999 -0.0223,-1.23835 -0.0586,-2.88226 -0.51314,-3.70768 -0.6711,-1.33913 -1.61845,-3.99416 -2.51311,-5.33361 -1.51903,-2.1626 -1.00393,-3.22886 -3.20677,-4.32454 -0.74562,-0.0281 -6.89462,8.55529 -7.65977,11.16379 -2.99507,4.86416 -5.38419,8.85438 -6.39957,11.47708 -1.0066,2.2769 -2.18091,5.29027 -3.52295,9.0401 -1.34212,3.75011 -2.79604,7.70097 -4.36176,11.85258 -1.45395,4.01789 -3.0197,7.96882 -4.69726,11.85258 -1.56579,3.7501 -3.13155,6.83037 -4.69728,9.24099 -1.45394,6.42859 -3.35522,13.72763 -5.70383,21.89714 -2.34865,8.03568 -5.31241,17.20974 -8.89127,27.52209 -1.11841,3.21429 -2.23681,6.49551 -3.35519,9.84366 -1.1184,3.2143 -2.12497,6.36156 -3.01968,9.44189 -0.89472,2.9464 -1.62168,5.75888 -2.18087,8.43743 -0.5592,2.54462 -0.83881,4.62049 -0.8388,6.22762 -1e-5,3.8839 1.28615,7.03119 3.85847,9.44189 M 197.3454,707.04387 c 0.55915,2.54476 1.11835,4.88842 1.6776,7.03119 0.67098,2.14291 1.34202,4.08486 2.01312,5.82585 -1.00662,0.13392 -2.34869,0.33482 -4.02623,0.60267 -1.56582,0.13393 -3.18749,0.33482 -4.86504,0.60267 -1.67764,0.26821 -3.29932,0.53578 -4.86503,0.80357 -1.45396,0.13393 -2.57236,0.20089 -3.35519,0.20089 l -0.50328,0 c 1.56571,-5.08917 3.2433,-10.11138 5.03279,-15.06684 1.90123,-5.0891 3.91434,-9.24092 6.03935,-12.45525 0.33549,1.47334 0.7269,3.28129 1.17432,5.42406 0.55915,2.00898 1.11834,4.35278 1.67759,7.03119"
           sodipodi:nodetypes="cscccccccccccccccccccccsccccccccccccccccccccsccccccccscccccccsccccc"
           inkscape:export-filename="/Users/jas/projects/TriggerRally/misc/codeartemis/path3125.png"
           inkscape:export-xdpi="399.96063"
           inkscape:export-ydpi="399.96063" />
        <path
           inkscape:connector-curvature="0"
           id="path5123"
           style="font-size:40px;fill:#fce9e0;fill-opacity:1;fill-rule:nonzero;font-family:Diogenes;-inkscape-font-specification:Diogenes"
           d="m 313.61241,805.65573 c 1.08726,-0.83705 1.86393,-1.67409 2.33,-2.51114 0.46593,-0.83705 0.81543,-1.76711 1.04849,-2.79015 l -0.11649,0 0.699,-2.09262 c -4.42705,-4.46425 -8.38804,-8.83548 -11.88298,-13.11373 -3.41738,-4.37123 -6.48521,-8.50994 -9.20348,-12.41619 -2.64071,-3.9992 -4.9707,-7.71938 -6.98999,-11.16062 -1.9417,-3.44113 -3.6892,-6.5103 -5.24249,-9.20751 l 0.11649,0.13951 c -0.15535,-0.27902 -0.31072,-0.558 -0.466,-0.83705 -0.0777,-0.27902 -0.1942,-0.55796 -0.3495,-0.83705 l 0,-1.39507 c 0.85429,-0.55797 2.09696,-1.16252 3.72799,-1.8136 1.70862,-0.744 3.49495,-1.44154 5.35899,-2.09262 1.86396,-0.744 3.65028,-1.48803 5.35899,-2.23213 1.78628,-0.83697 3.18428,-1.62753 4.194,-2.37163 4.19393,-3.62713 7.61126,-7.53335 10.25198,-11.71865 -1.08739,-4.09214 -2.52422,-7.67286 -4.31049,-10.7421 -1.78639,-3.16208 -4.15522,-5.95223 -7.10649,-8.37046 -2.95138,-2.41805 -6.64054,-4.55716 -11.06748,-6.41736 -4.42703,-1.85998 -9.82485,-3.62709 -16.19348,-5.30129 -2.01935,-0.46491 -4.07751,-0.97645 -6.17449,-1.53459 -2.09701,-0.55792 -3.99984,-1.11595 -5.70849,-1.67409 -2.563,0.93017 -4.15517,2.51124 -4.77649,4.74326 -0.62134,2.13922 -0.932,4.55737 -0.932,7.25441 l 0,5.16178 c 0.69899,2.23223 1.04849,5.44088 1.0485,9.62604 -10e-6,1.11613 -0.0777,2.41823 -0.23301,3.90622 -0.0777,1.48816 -0.19416,3.06924 -0.3495,4.74326 -0.0777,1.58115 -0.15534,3.20875 -0.23301,4.88277 -0.0777,1.67416 -0.11649,3.25524 -0.11649,4.74326 -10e-6,2.51121 0.11649,4.83632 0.3495,6.97539 0.31065,2.13918 0.77665,4.0458 1.39799,5.71982 -1.55334,3.16222 -2.33,6.60342 -2.32999,10.32357 -10e-6,1.02308 0.11649,2.51118 0.3495,4.46425 0.31065,1.95315 0.62132,4.04576 0.93199,6.27785 0.31065,2.13914 0.58249,4.23176 0.8155,6.27785 0.31065,1.95314 0.46599,3.48773 0.46601,4.60376 -2.40767,1.9531 -3.6115,4.83628 -3.6115,8.64948 l 0,2.51114 c 0.0776,0.46504 0.11649,0.88357 0.11649,1.25557 -1e-5,0.27901 -1e-5,0.51154 0,0.69753 -1e-5,1.4881 -0.27183,3.06917 -0.8155,4.74327 l 2.91249,4.04572 c 0.77666,0.27902 1.55333,0.46502 2.33,0.55803 0.77666,0.0931 1.63099,0.13951 2.563,0.13951 1.55332,0 3.02898,-0.23263 4.42699,-0.69754 1.39798,-0.55803 2.83481,-1.34858 4.31049,-2.37163 0.0776,-1.20908 0.11646,-2.60416 0.11649,-4.18523 -2e-5,-1.67409 -2e-5,-3.25517 0,-4.74327 -2e-5,-1.39507 -0.0388,-3.58067 -0.11649,-6.55686 -0.0777,-2.97615 -0.15534,-6.09182 -0.23301,-9.34702 -0.0777,-3.34815 -0.15534,-6.51034 -0.23301,-9.48653 -0.0777,-2.97612 -0.11653,-5.16175 -0.11649,-6.55686 l 0,-5.02228 c 1.08731,0.18624 2.05814,0.55807 2.9125,1.11606 0.93197,0.46509 1.86397,1.16262 2.79599,2.09262 0.93197,0.9301 1.9028,2.18567 2.9125,3.76671 1.0873,1.48813 2.32996,3.39471 3.72799,5.71982 2.71829,4.83628 5.12596,8.18446 7.22299,10.04455 0.85429,0.1859 1.51446,0.88358 1.9805,2.09262 0.46595,1.20908 0.97079,2.69717 1.51449,4.46425 0.54363,1.76711 1.20379,3.6272 1.9805,5.58031 0.85428,1.86012 2.09695,3.58071 3.72799,5.16179 1.08729,1.02304 2.01929,2.09261 2.796,3.20867 0.85428,1.02305 1.63094,1.95311 2.33,2.79016 0.69894,0.83705 1.35911,1.53458 1.98049,2.09261 0.69894,0.55804 1.39794,0.83705 2.097,0.83705 0.31061,0 0.69894,-0.0931 1.165,-0.27901 0.46593,-0.1859 1.0096,-0.41853 1.631,-0.69754 l -0.11649,0 c 0.46593,-0.1859 0.8931,-0.37204 1.28149,-0.55803 0.38827,-0.1859 0.69894,-0.27902 0.932,-0.27902 l 0.8155,0 m -42.75543,-63.47603 -1.0485,0.41853 c 0.0776,-0.65098 0.11645,-1.39501 0.11649,-2.23213 -2e-5,-0.83697 -2e-5,-1.76704 0,-2.79015 -2e-5,-1.67403 -0.0777,-3.58064 -0.23301,-5.71982 -0.0777,-2.23206 -0.11653,-4.55716 -0.11649,-6.97539 -2e-5,-4.55716 0.54365,-8.13787 1.631,-10.7421 2.4853,0.37211 4.73763,0.65112 6.75699,0.83705 2.09696,0.18624 4.15512,0.69764 6.17448,1.53459 2.09696,0.83711 4.31046,2.13921 6.64049,3.90621 2.40762,1.76718 5.16478,4.41783 8.27149,7.95195 -7.53369,4.09228 -13.51401,7.20798 -17.94097,9.34701 -4.42702,2.04616 -7.84434,3.53426 -10.25199,4.46425"
           inkscape:export-filename="/Users/jas/projects/TriggerRally/misc/codeartemis/path3125.png"
           inkscape:export-xdpi="399.96063"
           inkscape:export-ydpi="399.96063" />
        <path
           inkscape:connector-curvature="0"
           id="path5125"
           style="font-size:40px;fill:#fce9e0;fill-opacity:1;fill-rule:nonzero;font-family:Diogenes;-inkscape-font-specification:Diogenes"
           d="m 384.14394,710.09292 c -8e-5,-0.55793 0.0387,-0.88347 0.11649,-0.97655 0.15524,-0.83695 0.34941,-1.90652 0.5825,-3.20868 0.23301,-1.30196 0.34942,-2.23202 0.3495,-2.79016 -8e-5,-1.39497 -0.27204,-2.46454 -0.8155,-3.20868 -0.54373,-0.83694 -1.24273,-1.44146 -2.09699,-1.8136 -0.85441,-0.37193 -1.86409,-0.60441 -3.029,-0.69754 -1.08741,-0.0928 -2.21356,-0.1395 -3.37849,-0.1395 -0.77674,1e-4 -2.09706,0.0931 -3.961,0.27901 -1.78641,0.18624 -3.72805,0.41863 -5.82499,0.69754 -2.09705,0.27902 -4.15523,0.51165 -6.17449,0.69754 -2.01938,0.18624 -3.57271,0.27901 -4.65999,0.27901 l -0.932,0 c -2.17471,-0.74392 -4.8542,-1.06946 -8.03848,-0.97655 -3.10671,10e-5 -6.99003,-0.0928 -11.64999,-0.27902 -4.19402,-0.18589 -7.84434,-0.4649 -10.95098,-0.83704 -3.02901,-0.37193 -5.55317,-0.79045 -7.57249,-1.25557 l 0.11649,0 c -0.62134,-0.1859 -1.32034,-0.3254 -2.09699,-0.41852 -0.77668,-0.0928 -1.35918,-0.1859 -1.7475,-0.27902 -1.94167,5.02238 -2.9125,8.83558 -2.9125,11.43964 0,2.69724 0.466,4.37133 1.398,5.02227 0.93199,0.65112 1.98049,0.97666 3.1455,0.97656 l 1.28149,0 c 1.08733,0.46512 2.01932,0.46512 2.796,0 0.77665,-0.55793 1.24265,-0.83694 1.398,-0.83705 0.0776,1.1e-4 0.1553,0.0467 0.23301,0.13951 0.15531,10e-5 0.31065,10e-5 0.466,0 1.63098,0.27902 2.95131,0.46512 3.96099,0.55803 1.00965,0.0931 1.74748,0.18624 2.2135,0.27902 0.54364,10e-5 0.89314,10e-5 1.0485,0 0.1553,-0.0928 0.23297,-0.13951 0.23301,-0.13951 l 2.91249,0 c 3.18431,10e-5 5.90263,0.3721 8.15499,1.11606 -0.15538,0.65112 -0.31072,1.39518 -0.466,2.23213 -0.15534,0.74413 -0.31068,1.48816 -0.466,2.23212 -0.15534,0.46512 -0.27186,0.97662 -0.3495,1.53458 -3e-5,0.55811 -0.0388,0.93014 -0.11649,1.11607 1.86397,5.02235 2.79597,10.55616 2.796,16.60142 -3e-5,1.48816 -0.0777,3.53425 -0.23301,6.13834 -0.15534,2.51121 -0.34953,5.11533 -0.5825,7.81243 -0.15534,2.69721 -0.31069,5.20835 -0.466,7.53342 -0.15534,2.32518 -0.27187,3.95278 -0.3495,4.88277 0.15531,1.3021 0.2718,2.79019 0.3495,4.46425 0.0776,1.58111 0.11645,3.34822 0.11649,5.3013 -3e-5,1.30209 -0.0389,2.83668 -0.11649,4.60375 -3e-5,1.67413 -0.0389,3.44121 -0.11649,5.3013 -0.0777,1.76711 -0.15538,3.53422 -0.23301,5.30129 -4e-5,1.6741 -4e-5,3.16219 0,4.46425 l 0,3.34819 c -4e-5,3.16218 0.19416,5.67332 0.5825,7.53342 0.46596,1.86009 1.82513,2.79015 4.07749,2.79015 l 2.4465,-0.41852 c 0.38829,-0.0931 0.73779,-0.13951 1.04849,-0.13951 0.3883,-0.0931 0.66013,-0.13951 0.8155,-0.13951 0.15531,0 0.34946,0.0464 0.5825,0.13951 0.31061,0 0.73779,0.0931 1.2815,0.27901 2.01929,-3.4412 3.26195,-7.30089 3.72799,-11.57914 0.46596,-4.37123 0.77662,-9.06797 0.932,-14.09028 0.38829,-1.39504 0.66012,-2.79012 0.8155,-4.18523 0.23295,-1.48806 0.34945,-3.02265 0.3495,-4.60376 -5e-5,-1.02301 -0.11656,-2.5576 -0.3495,-4.60376 -0.15537,-2.04609 -0.34955,-4.1387 -0.5825,-6.27784 l 0,0.1395 c -0.23305,-2.04605 -0.46604,-3.99916 -0.699,-5.85932 -0.23305,-1.95308 -0.34954,-3.30163 -0.3495,-4.04573 -4e-5,-2.41809 0.2718,-4.60368 0.8155,-6.55686 0.54362,-2.04606 0.81545,-4.32467 0.8155,-6.83588 -5e-5,-0.93 -0.11656,-2.23206 -0.3495,-3.90622 -0.15538,-1.76704 -0.34955,-3.53411 -0.5825,-5.30129 -0.15537,-1.86003 -0.34954,-3.58061 -0.5825,-5.16179 -0.15537,-1.67402 -0.23305,-2.83658 -0.23301,-3.48769 -5e-5,-2.60406 0.42712,-4.9292 1.2815,-6.97539 l 7.33949,-0.69754 c 1.70861,-0.74396 3.80561,-1.11596 6.29099,-1.11606 0.62126,10e-5 1.35908,0.0467 2.21349,0.1395 0.85426,0.0931 1.74744,0.18625 2.6795,0.27902 0.93194,10e-5 1.82508,0.0467 2.67949,0.13951 0.85427,0.0931 1.63094,0.13951 2.33,0.13951 1.08726,1e-4 2.05808,-0.0464 2.9125,-0.13951 0.85426,-0.0928 1.70858,-0.3254 2.56299,-0.69754 l 0.8155,-1.25557"
           inkscape:export-filename="/Users/jas/projects/TriggerRally/misc/codeartemis/path3125.png"
           inkscape:export-xdpi="399.96063"
           inkscape:export-ydpi="399.96063" />
        <path
           inkscape:connector-curvature="0"
           id="path5127"
           style="font-size:40px;fill:#fce9e0;fill-opacity:1;fill-rule:nonzero;font-family:Diogenes;-inkscape-font-specification:Diogenes"
           d="m 418.69886,806.49278 c 5.12593,-2.51114 7.76661,-5.95235 7.92198,-10.32358 -7.61137,-5.85932 -13.55286,-10.92809 -17.82445,-15.20634 -4.19402,-4.27822 -7.49484,-7.53339 -9.9025,-9.76554 -1.78633,-1.39505 -3.57266,-2.83662 -5.35898,-4.32474 -1.70868,-1.48806 -3.22317,-3.02265 -4.5435,-4.60376 2.09697,-0.37196 4.77647,-0.79049 8.03848,-1.25557 3.33964,-0.558 6.71813,-1.16252 10.13548,-1.8136 3.41731,-0.65098 6.64047,-1.39504 9.66949,-2.23213 3.02896,-0.92999 5.24243,-1.99956 6.6405,-3.20867 l 0,-5.71982 c -7e-5,-2.8831 -1.00972,-4.83621 -3.02899,-5.85933 l -0.46599,-0.1395 c -0.69904,0.0931 -1.9417,0.23262 -3.728,0.41852 -1.78639,0.18589 -3.76688,0.46508 -5.94149,0.83704 -2.09705,0.27902 -4.2717,0.65109 -6.52401,1.11607 -2.17468,0.46508 -4.03865,0.97662 -5.592,1.53458 -1.70865,0.7441 -3.30083,1.25564 -4.77647,1.53459 -1.47568,0.27901 -2.87368,0.41859 -4.194,0.41852 0.23302,-0.18589 0.54365,-0.51147 0.932,-0.97655 l 4.194,-3.4877 c 0.23301,-1.02301 0.89314,-2.32507 1.98048,-3.90621 1.16499,-1.58101 2.40765,-3.16212 3.72799,-4.74327 l 2.563,-3.06917 c 1.08729,-1.67402 2.17465,-3.11559 3.26201,-4.32474 1.16496,-1.30199 2.32995,-2.55756 3.49498,-3.76671 l -0.11649,0 c 1.39797,-1.48799 2.95129,-3.11559 4.65998,-4.88277 1.70862,-1.86002 3.33964,-3.72011 4.89299,-5.58031 1.63095,-1.953 3.06781,-3.85962 4.31051,-5.71982 1.3203,-1.953 2.2911,-3.7666 2.9125,-5.4408 -0.0778,-0.37193 -0.19426,-0.83694 -0.3495,-1.39508 l 0.3495,0 c -0.15555,-0.18589 -0.34957,-0.46491 -0.58251,-0.83704 -0.23298,-0.37193 -0.46606,-0.65095 -0.699,-0.83705 l -1.04847,-1.25557 c -0.46607,-0.65094 -1.00973,-1.25547 -1.63103,-1.8136 -0.54369,-0.55793 -1.20388,-0.83694 -1.98048,-0.83705 -0.5437,1.1e-4 -1.39804,0.32575 -2.563,0.97656 l 0,-0.13951 c -2.95139,1.86019 -5.82501,4.09232 -8.62099,6.69637 -2.79601,2.60423 -5.59203,5.62691 -8.38797,9.068 l -14.32949,17.43847 c -1.631,1.02312 -3.22317,2.2322 -4.77649,3.62721 -1.47568,1.39514 -2.95132,2.92973 -4.427,4.60375 -0.54367,2.79023 -2.05817,5.67336 -4.54349,8.64948 l -7.80549,9.48653 c 6.83467,9.02155 14.05766,17.299 21.66897,24.83238 7.68896,7.53342 15.76627,14.46231 24.23195,20.78665 1.16499,2.79016 3.65029,4.60376 7.45599,5.44081 l 0.699,0"
           inkscape:export-filename="/Users/jas/projects/TriggerRally/misc/codeartemis/path3125.png"
           inkscape:export-xdpi="399.96063"
           inkscape:export-ydpi="399.96063" />
        <path
           inkscape:connector-curvature="0"
           id="path5129"
           style="font-size:40px;fill:#fce9e0;fill-opacity:1;fill-rule:nonzero;font-family:Diogenes;-inkscape-font-specification:Diogenes"
           d="m 530.26384,805.79524 c 3.72786,0 5.59185,-2.37163 5.59199,-7.1149 -1.4e-4,-0.18589 -0.0391,-0.46501 -0.11649,-0.83704 -10e-5,-0.372 -0.0778,-1.06954 -0.23297,-2.09262 -1.32044,-4.92926 -2.75727,-10.64908 -4.31051,-17.15945 -1.47575,-6.51034 -3.0291,-13.4392 -4.65998,-20.78666 -1.63109,-7.34735 -3.30093,-14.97378 -5.00948,-22.87927 -1.70876,-7.90535 -3.3786,-15.71778 -5.00952,-23.4373 1.94157,-4.18513 2.9124,-7.0683 2.91251,-8.64948 -1.1e-4,-1.48799 -0.50495,-3.16209 -1.5145,-5.02228 l -1.39801,0 c -0.46609,10e-5 -0.89326,0.0931 -1.28148,0.27901 l -0.93202,0 c -0.69907,1.1e-4 -1.59223,-0.41842 -2.67949,-1.25557 l 0,0.13951 c -0.6214,-0.46491 -1.20391,-0.83694 -1.7475,-1.11606 -0.54374,-0.37193 -1.28156,-0.55793 -2.21347,-0.55803 -1.78643,4.74337 -3.65043,9.57961 -5.59199,14.5088 -1.94174,4.92937 -3.80574,9.76562 -5.592,14.50881 -1.70872,4.74333 -3.22322,9.3006 -4.54349,13.67176 -1.3204,4.3713 -2.21357,8.37054 -2.67952,11.99767 -0.31075,0.7441 -0.77671,1.76714 -1.39797,3.06917 -0.54374,1.30213 -1.16507,2.65068 -1.864,4.04572 -0.6214,1.39511 -1.28155,2.79019 -1.98052,4.18524 -0.62137,1.39511 -1.16503,2.55766 -1.63099,3.48769 l -1.0485,-2.92966 c -1.32038,-1.39505 -2.56304,-3.30163 -3.728,-5.71982 -1.16503,-2.51111 -2.29121,-5.06874 -3.37849,-7.67293 -1.00969,-2.6971 -1.94171,-5.20824 -2.79598,-7.53342 -0.85438,-2.41805 -1.66988,-4.18516 -2.44652,-5.30129 -0.62136,-0.93 -1.28151,-2.7436 -1.98048,-5.4408 -0.69904,-2.69707 -1.47572,-5.62674 -2.32999,-8.78899 -0.85438,-3.2551 -1.86403,-6.46378 -3.02899,-9.62604 -1.0874,-3.16208 -2.36885,-5.62673 -3.84449,-7.39391 -0.1552,-1.58097 -0.62137,-3.02257 -1.39801,-4.32474 -0.69903,-1.30195 -1.28151,-2.18553 -1.74751,-2.65065 -3e-5,0.55814 -0.0387,0.88365 -0.11648,0.97656 -0.0778,0.0931 -0.38836,0.13951 -0.93202,0.13951 l 0,-2.65065 -1.165,0 c -5.59199,1e-4 -8.388,2.79026 -8.38797,8.37046 -3e-5,0.55814 0.0387,1.44168 0.11649,2.65065 0.1552,1.20915 0.31075,2.46472 0.46599,3.76671 0.23298,1.30217 0.38836,2.51124 0.46603,3.6272 0.1552,1.11617 0.23297,1.90669 0.23297,2.37163 -3e-5,1.58118 -0.31075,2.97626 -0.93198,4.18524 -0.93205,10.78865 -2.17468,20.60069 -3.72799,29.43613 -1.47568,8.74253 -2.91251,16.27595 -4.31051,22.60026 -1.39798,6.32437 -2.64068,11.30016 -3.728,14.92733 -1.08732,3.53422 -1.66984,5.48733 -1.74747,5.85932 l 0,-0.1395 c -0.69901,2.13914 -1.24267,4.18523 -1.63102,6.13834 -0.31076,1.95311 -0.46599,3.95271 -0.46599,5.99883 0.85434,0 1.70869,0.0464 2.563,0.13951 0.85431,0.0931 1.70865,0.23263 2.563,0.41852 l 4.54349,0.69754 c 0.699,0 1.32033,-0.0464 1.864,-0.13951 0.62133,-0.18589 1.28148,-0.51154 1.98048,-0.97655 0.77664,-2.51114 1.51446,-5.6268 2.2135,-9.34702 0.77664,-3.72018 1.47565,-7.53342 2.09701,-11.43964 0.6213,-3.9992 1.24263,-7.8124 1.864,-11.43963 0.6213,-3.62717 1.24263,-6.51034 1.864,-8.64948 -4e-5,3e-5 0.11649,-0.93003 0.3495,-2.79016 0.23298,-1.86006 0.54363,-4.1852 0.93198,-6.97539 0.38829,-2.8831 0.89317,-5.99876 1.5145,-9.34702 0.69897,-3.44113 1.47564,-6.6963 2.32999,-9.76554 l 5.24249,7.81244 c 3.26197,10.41662 6.25211,19.48463 8.97049,27.20401 2.71831,7.62643 5.32013,13.9973 7.80549,19.11256 0.1552,1.11606 0.31075,2.23212 0.46599,3.34819 0.1552,1.11606 0.38832,2.13914 0.69901,3.06917 0.38828,0.83704 0.85427,1.53458 1.398,2.09261 0.62127,0.46502 1.47561,0.69754 2.563,0.69754 l 1.165,0 c 0.85427,-1.20908 1.66977,-2.69714 2.44648,-4.46425 0.77664,-1.86009 1.55328,-3.72018 2.33002,-5.58031 0.77657,-1.86009 1.51443,-3.58067 2.21346,-5.16178 0.77661,-1.58108 1.5921,-2.74363 2.44652,-3.4877 0.23298,-2.79012 0.7766,-5.71978 1.63098,-8.78899 0.85428,-3.16215 1.86397,-6.37083 3.02899,-9.62603 1.16493,-3.25514 2.44641,-6.60332 3.84452,-10.04456 1.47558,-3.44113 2.99007,-6.92883 4.54349,-10.46308 l 1.63099,-4.04573 c 2.48522,7.44048 4.69872,16.41546 6.6405,26.925 l 5.82497,32.64482 2.33002,3.6272 c 1.00955,1.67409 2.05806,2.92966 3.14548,3.76671 1.16493,0.74403 2.64057,1.11606 4.427,1.11606"
           inkscape:export-filename="/Users/jas/projects/TriggerRally/misc/codeartemis/path3125.png"
           inkscape:export-xdpi="399.96063"
           inkscape:export-ydpi="399.96063" />
        <path
           inkscape:connector-curvature="0"
           id="path5131"
           style="font-size:40px;fill:#fce9e0;fill-opacity:1;fill-rule:nonzero;font-family:Diogenes;-inkscape-font-specification:Diogenes"
           d="m 540.24095,751.38721 c 0,4.46429 0.0778,8.83555 0.23297,13.11373 0.15521,4.27829 0.38836,8.51001 0.69901,12.69521 l -0.46599,23.71632 c 1.00968,2.04612 2.05815,3.58071 3.14548,4.60375 1.08732,0.93007 2.17468,1.39508 3.262,1.39508 1.00969,0 1.78633,-0.27902 2.32999,-0.83705 0.62133,-0.65104 1.08732,-1.39507 1.39801,-2.23212 0.31075,-0.83705 0.50481,-1.72058 0.58251,-2.65065 0.15521,-1.02304 0.23298,-1.90662 0.23298,-2.65064 0,-0.46502 -0.0387,-0.83705 -0.11649,-1.11607 0,-0.27901 0,-0.5115 0,-0.69754 l 0,-5.58031 c 0,-3.06917 -0.0387,-6.74286 -0.11649,-11.02111 0,-4.37123 -0.0387,-8.69594 -0.11649,-12.97422 -0.0778,-4.27818 -0.1552,-8.1844 -0.23297,-11.71865 0,-3.53415 0,-6.04529 0,-7.53342 0,-18.22895 1.04847,-33.48176 3.14548,-45.75854 0.1552,-0.37193 0.23298,-0.69744 0.23298,-0.97656 0.0778,-0.27901 0.11648,-0.65094 0.11648,-1.11606 0,-2.97605 -1.59216,-4.55716 -4.7765,-4.74326 -0.54366,0.37213 -1.20381,0.55813 -1.98048,0.55803 -0.31076,1e-4 -0.89317,-0.0464 -1.74751,-0.13951 -0.77668,-0.0928 -1.3203,-0.13951 -1.63099,-0.13951 -1.864,1.1e-4 -3.18433,0.55814 -3.96101,1.6741 -0.77664,1.11616 -1.16499,2.97625 -1.16499,5.58031 0,4.46435 0.77667,8.13804 2.32999,11.02111 -0.93198,13.95084 -1.39797,26.46002 -1.39797,37.52758"
           inkscape:export-filename="/Users/jas/projects/TriggerRally/misc/codeartemis/path3125.png"
           inkscape:export-xdpi="399.96063"
           inkscape:export-ydpi="399.96063" />
        <path
           inkscape:connector-curvature="0"
           id="path5133"
           style="font-size:40px;fill:#fce9e0;fill-opacity:1;fill-rule:nonzero;font-family:Diogenes;-inkscape-font-specification:Diogenes"
           d="m 595.56927,714.83618 c 2.40759,-0.83694 4.27159,-2.65054 5.59199,-5.4408 1.32027,-2.88307 2.2911,-6.64978 2.91247,-11.30013 -0.85438,-0.18589 -1.74754,-0.41842 -2.67949,-0.69754 -0.93205,-0.37192 -1.86403,-0.69743 -2.79598,-0.97655 -0.93202,-0.27902 -1.7864,-0.55793 -2.563,-0.83705 -0.69904,-0.27901 -1.28152,-0.51143 -1.74751,-0.69754 l -13.39745,15.06684 c -1.94171,2.23223 -3.53387,4.18534 -4.77651,5.85933 -1.16502,1.67416 -2.25235,3.30176 -3.262,4.88277 -1.00965,1.48816 -2.05816,3.02275 -3.14548,4.60375 -1.08736,1.48817 -2.48537,3.16226 -4.19399,5.02228 -0.93201,1.11614 -1.63102,2.18571 -2.09701,3.20868 -0.46599,1.02312 -0.699,2.1857 -0.699,3.4877 0,1.58114 0.62133,3.30173 1.864,5.16178 1.32033,1.86016 2.83483,3.72026 4.54348,5.58031 1.78633,1.86016 3.57266,3.62724 5.35902,5.3013 1.86396,1.58114 3.33964,2.8832 4.42696,3.90621 1.32031,1.20912 2.60182,2.37167 3.84452,3.4877 1.24263,1.02311 2.36878,2.04616 3.3785,3.06917 l 0.69897,5.30129 c -0.93202,2.23216 -2.13583,4.23176 -3.61148,5.99884 -1.47571,1.67413 -3.10669,3.2552 -4.89299,4.74326 -1.78636,1.39511 -3.68917,2.74366 -5.70848,4.04573 -1.9417,1.20907 -3.88337,2.37166 -5.82501,3.48769 -3.10666,2.60416 -5.39783,5.30129 -6.87347,8.09145 -1.47568,2.69714 -2.2135,5.39431 -2.2135,8.09145 l 0,2.37163 c 1.08732,0.46501 1.98048,0.79056 2.67949,0.97655 0.77664,0.1859 1.43682,0.27902 1.98049,0.27902 2.48533,0 4.69883,-0.79056 6.64049,-2.37163 2.01931,-1.67409 4.38815,-3.90622 7.10649,-6.69637 l 2.44648,-2.51114 c 0.46599,-0.55803 0.9708,-0.97656 1.5145,-1.25557 0.54366,-0.372 1.04847,-0.74403 1.51453,-1.11606 0.54363,-0.372 1.04844,-0.79053 1.5145,-1.25557 0.46595,-0.46502 0.89312,-1.20905 1.28148,-2.23213 0.38828,-1.02304 0.93198,-1.90658 1.63098,-2.65065 0.77664,-0.74403 1.59217,-1.39504 2.44652,-1.9531 0.1552,-0.93003 0.85427,-1.90659 2.09697,-2.92967 1.24263,-1.02304 2.56297,-2.1856 3.96101,-3.48769 1.47561,-1.39504 2.79598,-2.97616 3.96101,-4.74326 1.16493,-1.76708 1.78629,-3.76668 1.864,-5.99884 -1.32041,-2.79012 -2.87372,-5.53375 -4.66001,-8.23096 -1.70869,-2.6971 -3.53387,-5.30126 -5.47547,-7.81243 -1.94171,-2.51107 -3.96105,-4.8827 -6.05802,-7.1149 -2.09701,-2.23205 -4.15521,-4.23168 -6.17448,-5.99883 0.77664,-0.92999 1.86397,-2.37156 3.26201,-4.32474 1.47564,-1.95304 2.99014,-4.09215 4.54349,-6.41736 1.63095,-2.32503 3.22311,-4.65017 4.77646,-6.97538 1.55332,-2.32504 2.8348,-4.32467 3.84452,-5.99884 l 1.165,0"
           inkscape:export-xdpi="399.96063"
           inkscape:export-ydpi="399.96063" />
      </g>
      <path
         sodipodi:type="arc"
         style="fill:#000000;fill-opacity:0.05314008;fill-rule:nonzero"
         id="path5454"
         sodipodi:cx="367.04425"
         sodipodi:cy="751.37659"
         sodipodi:rx="296.33356"
         sodipodi:ry="239.57895"
         d="m 663.37781,751.37659 c 0,132.3158 -132.67306,239.57895 -296.33356,239.57895 -163.6605,0 -296.333557,-107.26315 -296.333557,-239.57895 0,-132.3158 132.673057,-239.57895 296.333557,-239.57895 163.6605,0 296.33356,107.26315 296.33356,239.57895 z"
         transform="matrix(1.2900832,0,0,1.2691125,-96.099767,90.532025)"
         clip-path="url(#clipPath5472)"
         inkscape:export-filename="/Users/jas/projects/TriggerRally/misc/codeartemis/path5456.png"
         inkscape:export-xdpi="400"
         inkscape:export-ydpi="400" />
      <path
         transform="matrix(1.2900832,0,0,1.2691125,-96.099767,-627.88903)"
         d="m 663.37781,751.37659 c 0,132.3158 -132.67306,239.57895 -296.33356,239.57895 -163.6605,0 -296.333557,-107.26315 -296.333557,-239.57895 0,-132.3158 132.673057,-239.57895 296.333557,-239.57895 163.6605,0 296.33356,107.26315 296.33356,239.57895 z"
         sodipodi:ry="239.57895"
         sodipodi:rx="296.33356"
         sodipodi:cy="751.37659"
         sodipodi:cx="367.04425"
         id="path5456"
         style="fill:#ffffff;fill-opacity:0.12560389;fill-rule:nonzero"
         sodipodi:type="arc"
         clip-path="url(#clipPath5468)"
         inkscape:export-xdpi="400"
         inkscape:export-ydpi="400" />
    </g>
  </g>
</svg>
