<?xml version="1.0" encoding="UTF-8" standalone="no"?>
<!-- Created with Inkscape (http://www.inkscape.org/) -->

<svg
   xmlns:dc="http://purl.org/dc/elements/1.1/"
   xmlns:cc="http://creativecommons.org/ns#"
   xmlns:rdf="http://www.w3.org/1999/02/22-rdf-syntax-ns#"
   xmlns:svg="http://www.w3.org/2000/svg"
   xmlns="http://www.w3.org/2000/svg"
   xmlns:xlink="http://www.w3.org/1999/xlink"
   xmlns:sodipodi="http://sodipodi.sourceforge.net/DTD/sodipodi-0.dtd"
   xmlns:inkscape="http://www.inkscape.org/namespaces/inkscape"
   width="263.98779"
   height="182.8181"
   id="svg2"
   version="1.1"
   inkscape:version="0.48.2 r9819"
   sodipodi:docname="i-made-this.svg">
  <defs
     id="defs4">
    <linearGradient
       id="linearGradient3855">
      <stop
         style="stop-color:#ebf8fe;stop-opacity:1;"
         offset="0"
         id="stop3857" />
      <stop
         id="stop3863"
         offset="0.56923079"
         style="stop-color:#71dbf8;stop-opacity:1;" />
      <stop
         style="stop-color:#07718b;stop-opacity:1;"
         offset="1"
         id="stop3859" />
    </linearGradient>
    <radialGradient
       inkscape:collect="always"
       xlink:href="#linearGradient3855"
       id="radialGradient3861"
       cx="301.49799"
       cy="417.84424"
       fx="301.49799"
       fy="417.84424"
       r="129.24435"
       gradientTransform="matrix(2.3638466,-0.8676217,0.44548293,1.213724,-594.39738,157.1476)"
       gradientUnits="userSpaceOnUse" />
  </defs>
  <sodipodi:namedview
     id="base"
     pagecolor="#ffffff"
     bordercolor="#666666"
     borderopacity="1.0"
     inkscape:pageopacity="0.0"
     inkscape:pageshadow="2"
     inkscape:zoom="2.8"
     inkscape:cx="103.9755"
     inkscape:cy="110.40129"
     inkscape:document-units="px"
     inkscape:current-layer="layer1"
     showgrid="false"
     inkscape:window-width="1916"
     inkscape:window-height="1156"
     inkscape:window-x="4"
     inkscape:window-y="0"
     inkscape:window-maximized="1"
     fit-margin-top="0"
     fit-margin-left="0"
     fit-margin-right="0"
     fit-margin-bottom="0" />
  <metadata
     id="metadata7">
    <rdf:RDF>
      <cc:Work
         rdf:about="">
        <dc:format>image/svg+xml</dc:format>
        <dc:type
           rdf:resource="http://purl.org/dc/dcmitype/StillImage" />
        <dc:title></dc:title>
      </cc:Work>
    </rdf:RDF>
  </metadata>
  <g
     inkscape:label="Layer 1"
     inkscape:groupmode="layer"
     id="layer1"
     transform="translate(-185.3615,-349.09643)">
    <path
       style="fill:url(#radialGradient3861);fill-opacity:1;stroke:#000000;stroke-width:2.2650001;stroke-linecap:butt;stroke-linejoin:round;stroke-miterlimit:4;stroke-opacity:1;stroke-dasharray:none"
       d="m 315.05807,367.17963 c 8.79752,-8.1485 22.32369,-23.11223 35.75813,-14.21688 12.54528,11.09884 31.21223,-11.13859 46.79762,3.67738 15.60255,10.17377 6.34861,35.54329 29.35226,37.47674 16.44341,7.71907 7.35231,22.24451 2.41376,31.90728 12.48057,9.41731 24.40559,26.97468 16.04979,41.47919 -1.58974,13.61408 -13.11574,16.32076 -23.35298,16.19273 -1.63845,12.84547 -11.57232,29.93195 -27.55098,21.15 -16.51242,-14.54116 -27.40586,12.72635 -44.66865,8.64405 -19.05037,-10.55945 -30.19234,4.05821 -44.29374,13.17962 -14.11648,10.65359 -30.46538,-2.49187 -45.61625,-4.7829 -17.03474,2.36432 -36.0817,16.82889 -52.8276,1.11555 -19.95951,-13.4435 -25.81267,-34.91325 -15.89413,-54.7535 10.9952,-12.9537 -5.04222,-30.5786 6.26185,-45.04752 4.9716,-10.9338 21.00617,-9.0213 18.87521,-25.39621 1.09838,-23.15787 29.74994,-11.73853 38.85863,-26.55955 8.51657,-16.27234 28.40047,-0.20114 42.2444,-5.1025 5.63297,2.013 12.83319,5.7441 17.59268,1.03652 z"
       id="path3851"
       inkscape:connector-curvature="0" />
    <path
       style="fill:#000000;fill-opacity:1;fill-rule:nonzero;stroke:none"
       id="path3815"
       d="m 246.43294,390.54164 c -0.10212,0.37572 -0.22638,0.7461 -0.30627,1.12716 -0.67492,3.21866 -0.93867,6.54766 -1.28454,9.80994 -0.63199,5.96044 -0.51219,4.93258 -1.05281,11.13209 -1.01504,10.50928 -1.56363,21.05651 -2.02769,31.60225 -0.1092,2.8133 -0.0778,1.55466 -0.11421,3.77541 0,0 -6.82086,2.69061 -6.82086,2.69061 l 0,0 c 0.24403,-2.29302 0.113,-0.99889 0.38155,-3.88353 0.92764,-10.58077 1.70222,-21.17367 2.42871,-31.77004 0.53063,-7.31977 0.98813,-14.65114 1.73317,-21.95191 0,0 7.0633,-2.53194 7.0633,-2.53194 z"
       inkscape:connector-curvature="0" />
    <path
       style="fill:#000000;fill-opacity:1;fill-rule:nonzero;stroke:none"
       id="path3819"
       d="m 322.90178,415.56681 c 0.12204,-0.37905 -1.91744,0.55577 -1.45755,0.35865 9.25024,-3.96481 6.30087,-3.25615 4.34396,-1.37468 -1.0699,1.02863 -1.37452,1.60873 -2.2118,2.8298 -0.67747,1.27837 -2.582,4.94907 -0.74542,6.144 0.23125,0.15046 0.53532,0.13379 0.80298,0.20072 0.34769,-0.0602 0.70724,-0.0722 1.04307,-0.18055 0.43409,-0.14001 1.67154,-0.73064 1.24906,-0.55874 -1.7138,0.69725 -3.35496,1.59159 -5.12354,2.13509 -0.58282,0.17909 1.02247,-0.66562 1.51429,-1.02597 1.03986,-0.76187 1.69132,-1.36148 2.65441,-2.19865 0.84101,-0.76925 1.63229,-1.59072 2.3801,-2.45033 0.13503,-0.15522 0.26604,-0.3139 0.39728,-0.47234 0.0753,-0.0908 0.10847,-0.24371 0.22208,-0.27543 2.40993,-0.67286 4.85489,-1.21322 7.28233,-1.81984 0.67293,2.52382 1.47701,5.07597 3.17763,7.12119 0.36998,0.44493 0.81368,0.82299 1.22052,1.23449 0,0 -6.52712,3.2238 -6.52712,3.2238 l 0,0 c -0.42293,-0.4474 -0.88166,-0.86348 -1.26878,-1.34218 -1.70614,-2.10983 -2.5951,-4.67643 -3.40364,-7.22485 2.23744,-1.12714 4.47489,-2.25426 6.71233,-3.38139 -0.10171,0.0577 -0.21909,0.0939 -0.30502,0.17321 -0.99018,0.91346 -1.80835,2.25412 -2.9069,3.07795 -1.06994,0.94792 -2.91302,2.72974 -4.13398,3.36065 -2.64504,1.36677 -5.34325,2.63104 -8.06039,3.8482 -0.44407,0.19892 -0.92263,0.33707 -1.40609,0.39232 -0.40868,0.0468 -0.82044,-0.0607 -1.23066,-0.0909 -0.32705,-0.18801 -0.70753,-0.30433 -0.98115,-0.56402 -1.97671,-1.87602 -0.35139,-5.08485 0.54398,-7.0129 0.61299,-0.97394 2.20957,-3.56822 3.23917,-4.11532 2.5293,-1.34397 5.15929,-2.49381 7.79237,-3.62095 0.66042,-0.28272 1.12839,-0.11323 1.76673,0.003 0,0 -6.58025,3.60572 -6.58025,3.60572 z"
       inkscape:connector-curvature="0" />
    <path
       style="fill:#000000;fill-opacity:1;fill-rule:nonzero;stroke:none"
       id="path3821"
       d="m 354.74114,410.44263 c -1.82973,-1.08214 -3.89517,-1.18225 -5.88319,-0.44682 -0.52856,0.19553 -1.02153,0.47633 -1.5323,0.7145 1.64225,-0.60364 3.18274,-1.67008 4.92672,-1.81088 0.7047,-0.0569 -1.02054,0.9836 -1.46726,1.53157 -1.28634,1.57789 -2.35822,3.55861 -2.71899,5.58225 -0.099,0.55536 -0.0532,1.12699 -0.0798,1.69048 0.33532,1.53105 0.78719,2.65444 2.63831,2.44826 0.63906,-0.0712 2.43556,-0.80507 1.85545,-0.52771 -6.85453,3.27705 -4.12402,1.60136 -1.49794,-0.36533 5.56874,-5.14805 9.09673,-11.96415 11.75228,-18.97976 0.5553,-1.46704 1.02004,-2.96679 1.53007,-4.45019 1.08528,-3.56103 2.04252,-7.17028 2.7271,-10.83185 0.32392,-1.73256 0.60253,-3.25801 0.36153,-4.99733 -2.2462,1.51375 2.58457,-1.77693 5.92971,-1.94095 0.6981,-0.0342 -0.67728,1.22606 -0.94628,1.87116 -0.404,0.96888 -0.75129,1.96171 -1.06917,2.96215 -1.11814,3.51905 -1.24153,4.59042 -2.05064,8.37273 -0.70974,4.32509 -1.24075,8.7177 -1.06775,13.11127 0.067,1.70106 0.20963,4.06095 1.15408,5.61853 0.3423,0.56454 0.96122,0.90529 1.44183,1.35793 0,0 -6.479,3.19986 -6.479,3.19986 l 0,0 c -0.49944,-0.56226 -1.14151,-1.02475 -1.49832,-1.68676 -0.93155,-1.72834 -1.0163,-4.04873 -1.05051,-5.91824 -0.0814,-4.44867 0.49544,-8.88534 1.14649,-13.27381 0.28101,-1.54383 0.51766,-3.09639 0.84304,-4.63148 0.41924,-1.97789 1.17327,-4.71862 1.81689,-6.69426 0.21717,-0.66658 0.14846,-1.57217 0.72181,-1.97545 6.80086,-4.78228 5.6118,-5.69968 7.94562,-3.20108 0.14292,1.958 -0.16641,3.39916 -0.59054,5.3391 -0.81078,3.70828 -1.84346,7.36772 -2.95131,10.99644 -3.01058,8.75247 -6.25184,17.05946 -12.93366,23.73203 -4.54579,3.74666 -3.01802,2.83923 -11.37367,6.22956 -1.12933,0.45822 -2.63302,0.45189 -3.67934,-0.25703 -1.1057,-0.74915 -1.11893,-1.6514 -1.44335,-2.81924 0.0183,-0.62204 -0.0403,-1.25113 0.0548,-1.86615 0.32664,-2.11309 1.37682,-4.19756 2.63084,-5.90241 0.42853,-0.58257 0.79204,-1.27074 1.40674,-1.65176 2.59648,-1.60937 5.41215,-2.83473 8.11822,-4.25209 0.54215,-0.20676 1.06849,-0.46106 1.62645,-0.62029 2.17485,-0.62064 4.33828,-0.22738 6.29251,0.84178 0,0 -6.60738,3.50127 -6.60738,3.50127 z"
       inkscape:connector-curvature="0" />
    <path
       style="fill:#000000;fill-opacity:1;fill-rule:nonzero;stroke:none"
       id="path3823"
       d="m 374.01965,407.89957 c 3.36071,-2.35686 5.9819,-5.52176 8.34079,-8.83997 0.59701,-1.09437 1.59619,-2.15812 1.80686,-3.44335 0.021,-0.13048 0.0419,-0.33022 -0.0761,-0.38917 -0.0641,-0.0319 -0.86338,0.56315 -1.07509,0.71374 1.80483,-0.72358 3.50859,-1.78537 5.41449,-2.17074 0.62983,-0.12735 -0.95398,0.866 -1.37265,1.35346 -1.54471,1.79856 -2.73597,3.97227 -3.50971,6.20827 -0.25296,0.73104 -0.40467,1.49327 -0.607,2.23992 -0.22683,1.6781 -0.66753,4.28727 0.58782,5.75061 1.03856,1.21063 2.51072,1.25807 3.93016,1.57697 0,0 -6.24118,3.52144 -6.24118,3.52144 l 0,0 c -1.79452,-0.52137 -3.07769,-0.56677 -4.31671,-2.1276 -1.31105,-1.65156 -0.93448,-4.33428 -0.69393,-6.21536 0.19785,-0.77803 0.34602,-1.57042 0.59355,-2.3341 0.74277,-2.29152 1.88918,-4.50466 3.33873,-6.42902 0.38802,-0.51512 0.70977,-1.13531 1.2644,-1.4644 2.51501,-1.49229 5.2266,-2.62513 7.8399,-3.9377 0.35445,-0.0444 0.71484,-0.21151 1.06333,-0.13308 2.18097,0.49079 -0.62643,4.31725 -1.08124,5.0035 -2.33646,3.29229 -4.85857,6.49575 -8.05681,9.00164 0,0 -7.14956,2.11494 -7.14956,2.11494 z"
       inkscape:connector-curvature="0" />
    <path
       style="fill:#000000;fill-opacity:1;fill-rule:nonzero;stroke:none"
       id="path3825"
       d="m 249.96428,465.55378 c -3.04734,7.90942 -4.68949,16.25141 -6.21508,24.55947 -0.41678,3.68934 -2.5222,11.78317 1.75946,14.1823 1.97358,1.10585 4.37156,0.48589 6.39987,0.26952 0,0 -5.97023,3.6353 -5.97023,3.6353 l 0,0 c -2.41613,0.12865 -4.59337,0.66834 -6.79883,-0.80661 -4.44425,-2.97218 -2.14933,-10.74348 -1.66737,-14.89134 1.52431,-8.20869 3.1032,-16.42288 5.52391,-24.42452 0,0 6.96827,-2.52412 6.96827,-2.52412 z"
       inkscape:connector-curvature="0" />
    <path
       style="fill:#000000;fill-opacity:1;fill-rule:nonzero;stroke:none"
       id="path3827"
       d="m 269.78842,456.94831 c -1.91278,8.18025 -2.92768,16.54217 -3.96927,24.86847 -0.47028,4.06836 -0.99622,8.1425 -1.11682,12.24129 -0.0225,0.76381 -0.0585,2.94782 0.18054,3.88326 0.0644,0.25229 0.26036,0.45103 0.39056,0.67655 2.19967,-1.84993 -1.69369,1.52124 -5.1072,1.46657 -0.80472,-0.0129 0.99717,-1.2644 1.46348,-1.92036 1.5308,-2.15339 2.92291,-4.41793 4.38301,-6.61984 2.64494,-3.69937 4.71377,-4.62152 10.04149,-6.1555 0.83427,-0.24021 3.13983,3.39246 3.48147,3.91214 1.0084,1.52071 1.89043,3.19194 3.23569,4.46009 0.33647,0.31719 0.73995,0.55476 1.10992,0.83214 0,0 -6.53813,3.33161 -6.53813,3.33161 l 0,0 c -0.37774,-0.32425 -0.78615,-0.61588 -1.13324,-0.97275 -1.30508,-1.34186 -2.19641,-3.0111 -3.2299,-4.55182 -0.57086,-0.81226 -1.33749,-2.08079 -2.19837,-2.69256 -0.27144,-0.1929 -1.22167,-0.14271 -0.9441,-0.32665 1.71052,-1.13365 3.68486,-1.80722 5.52728,-2.71083 -0.41222,0.32699 -0.86783,0.60572 -1.23667,0.98096 -0.48845,0.4969 -0.88028,1.08031 -1.32041,1.62046 -1.43994,2.11395 -1.47266,2.13625 -2.90315,4.34633 -2.23891,3.45909 -5.99769,10.73074 -11.39132,8.0717 -0.13182,-0.32324 -0.33366,-0.62614 -0.39545,-0.96971 -0.16505,-0.91768 -0.0178,-3.38506 0.0327,-4.08591 0.29959,-4.15901 0.94445,-8.28432 1.46789,-12.41775 1.07471,-8.20468 2.03799,-16.42538 3.17896,-24.61998 0,0 6.99106,-2.64791 6.99106,-2.64791 z"
       inkscape:connector-curvature="0" />
    <path
       style="fill:#000000;fill-opacity:1;fill-rule:nonzero;stroke:none"
       id="path3829"
       d="m 290.02595,478.63852 c -0.30294,4.43405 -0.13674,8.87963 0.62953,13.25603 0,0 -6.67198,2.80836 -6.67198,2.80836 l 0,0 c -0.69484,-4.4145 -0.82993,-8.86688 -0.84096,-13.33179 0,0 6.88341,-2.7326 6.88341,-2.7326 z"
       inkscape:connector-curvature="0" />
    <path
       style="fill:#000000;fill-opacity:1;fill-rule:nonzero;stroke:none"
       id="path3831"
       d="m 299.47869,467.51742 c -3.46997,1.40267 2.98658,-1.55688 4.59422,-2.01915 0.54983,-0.1581 -0.90901,0.71012 -1.27186,1.15244 -1.49703,1.82491 -1.69571,3.38259 -1.94045,5.61894 0.21554,4.07977 2.61092,5.79587 4.98366,8.68877 0.23828,0.43146 0.53228,0.83655 0.71481,1.29438 0.75252,1.88748 0.19246,4.07507 -1.08264,5.60855 -0.3627,0.43619 -0.83312,0.77018 -1.24968,1.15527 -2.70366,1.19626 -5.40731,2.39252 -8.11098,3.58878 0,0 6.13705,-3.96136 6.13705,-3.96136 l 0,0 c -1.67203,0.82942 -3.34405,1.65882 -5.01608,2.48822 0.43178,-0.31556 0.91515,-0.57058 1.29534,-0.94669 0.35031,-0.34653 0.62099,-0.76994 0.86985,-1.19522 1.02276,-1.74782 0.90634,-3.16392 -0.1438,-4.84632 -2.54253,-3.11674 -4.82464,-4.86618 -5.13777,-9.24096 0.1942,-2.37501 0.36911,-4.00088 1.72772,-6.06382 2.14972,-3.26406 6.39243,-4.13362 9.96412,-5.30392 0,0 -6.33351,3.98209 -6.33351,3.98209 z"
       inkscape:connector-curvature="0" />
    <path
       style="fill:#000000;fill-opacity:1;fill-rule:nonzero;stroke:none"
       id="path3833"
       d="m 231.85627,489.2329 c 5.05382,-3.72218 10.26738,-7.21191 15.55888,-10.58474 5.36461,-3.17689 2.68774,-1.63618 8.02854,-4.62573 0,0 6.56473,-1.85688 6.56473,-1.85688 l 0,0 c -5.3653,2.96921 -2.68342,1.44098 -8.04408,4.58747 -5.10889,3.26543 -10.17092,6.61887 -14.94333,10.36655 0,0 -7.16474,2.11333 -7.16474,2.11333 z"
       inkscape:connector-curvature="0" />
    <path
       style="fill:#000000;fill-opacity:1;fill-rule:nonzero;stroke:none"
       id="path3837"
       d="m 281.32237,473.95274 c 0.65834,-1.93092 1.72427,-3.62887 3.02006,-5.1872 0,0 7.05944,-2.26431 7.05944,-2.26431 l 0,0 c -1.31317,1.44393 -2.44576,3.00156 -3.04963,4.88414 0,0 -7.02987,2.56737 -7.02987,2.56737 z"
       inkscape:connector-curvature="0" />
    <path
       style="fill:#000000;fill-opacity:1;fill-rule:nonzero;stroke:none"
       id="path3839"
       d="m 326.04938,462.70697 c 0.83995,-3.05706 2.18155,-5.94905 3.45895,-8.84179 1.06816,-2.47152 2.272,-4.87922 3.57275,-7.23557 1.66414,-2.67192 3.33881,-2.3448 7.7758,-3.77235 0.45016,-0.14484 1.67785,2.34275 1.78599,2.55686 0.21589,0.55312 0.44906,1.09979 0.6477,1.65934 0.81934,2.30807 1.47564,4.67136 2.30796,6.97602 0.78654,2.17788 1.08037,2.80069 1.96093,4.88663 0.70519,1.61489 1.51098,3.1819 2.2848,4.7641 0,0 -6.69448,3.03143 -6.69448,3.03143 l 0,0 c -0.70608,-1.62402 -1.43859,-3.23623 -2.1244,-4.86906 -1.00738,-2.49753 -1.98257,-5.00177 -2.88433,-7.53982 -0.26585,-0.74828 -1.17786,-3.44469 -1.50189,-4.27038 -0.20741,-0.52854 -0.45402,-1.04086 -0.68103,-1.56129 -0.28459,-0.49282 -0.64323,-1.28775 -1.15198,-1.66834 -0.10823,-0.081 -0.51258,-0.042 -0.39214,-0.10325 2.10717,-1.07347 4.3035,-1.96263 6.43953,-2.97747 0.11331,-0.0538 -0.26084,0.0217 -0.36506,0.0914 -0.14468,0.0969 -0.23347,0.25843 -0.3502,0.38765 -1.43614,2.31201 -2.70527,4.72073 -3.78304,7.22152 -1.25731,2.80316 -2.56318,5.62909 -3.30261,8.62064 0,0 -7.00326,2.64372 -7.00326,2.64372 z"
       inkscape:connector-curvature="0" />
    <path
       style="fill:#000000;fill-opacity:1;fill-rule:nonzero;stroke:none"
       id="path3843"
       d="m 374.12815,455.8975 c 1.22876,-4.48473 3.33992,-8.67656 5.39616,-12.82748 0.97335,-1.84385 1.94371,-3.69367 3.01633,-5.48281 0.076,-0.12679 0.7345,-1.24608 0.95958,-1.33165 2.40212,-0.9133 4.86622,-1.65443 7.29933,-2.48164 0.10501,0.38704 0.24393,0.76645 0.31503,1.16114 0.15204,0.844 0.22544,2.56294 0.2984,3.35147 0.19658,2.12447 0.5374,4.14886 1.05924,6.21478 0.20113,0.48307 0.40227,0.96613 0.6034,1.44918 0,0 -6.6739,2.97788 -6.6739,2.97788 l 0,0 c -0.19695,-0.52124 -0.3939,-1.04246 -0.59085,-1.56368 -0.49667,-2.09037 -0.8616,-4.17491 -1.12277,-6.30917 -0.17782,-1.45306 -0.13493,-1.82581 -0.38283,-3.1768 -0.0424,-0.23112 -0.1181,-0.45488 -0.17716,-0.68233 2.18272,-1.01768 4.37019,-2.02524 6.54815,-3.05305 0.17898,-0.0845 -0.40312,0.0904 -0.55037,0.22263 -0.27154,0.24379 -0.46001,0.56767 -0.66564,0.86913 -1.19892,1.75762 -2.1911,3.65359 -3.24132,5.4993 -2.01643,4.01463 -4.0882,8.11244 -5.09973,12.51519 0,0 -6.99105,2.64791 -6.99105,2.64791 z"
       inkscape:connector-curvature="0" />
    <path
       style="fill:#000000;fill-opacity:1;fill-rule:nonzero;stroke:none"
       id="path3849"
       d="m 356.64606,481.10582 c 4.46481,-0.46793 8.87964,-1.53124 13.07044,-3.14799 1.51165,-0.58314 2.9756,-1.28316 4.4634,-1.92472 7.75253,-4.5968 3.79125,-1.92838 11.7601,-8.1859 0,0 -5.13342,6.269 -5.13342,6.269 l 0,0 c -8.30937,6.45214 -4.17885,3.6928 -12.26976,8.45752 -1.53006,0.65437 -3.03749,1.36442 -4.59019,1.96316 -4.38028,1.68908 -8.97102,2.8043 -13.61509,3.4516 0,0 6.31452,-6.88267 6.31452,-6.88267 z"
       inkscape:connector-curvature="0" />
    <path
       style="fill:#000000;fill-opacity:1;fill-rule:nonzero;stroke:none"
       id="path3865"
       d="m 271.42191,445.9737 c 0.006,-3.62042 0.38294,-7.21379 0.85508,-10.7985 0.69155,-3.80191 1.28818,-7.71629 3.10049,-11.17213 1.99224,-2.48713 5.83768,-6.35867 8.69958,-4.10846 1.26523,0.99481 2.01759,2.62153 2.79468,3.9763 1.49817,2.53853 2.31778,5.62445 4.50196,7.69913 2.61679,-0.21622 1.96084,-0.23014 -5.33584,3.01082 -0.37477,0.16646 0.63235,-0.52989 0.89169,-0.84754 1.25427,-1.53631 2.14909,-3.4555 3.10372,-5.17798 1.48435,-2.5358 2.77828,-5.23277 4.67327,-7.50286 0.96631,-1.15758 1.19443,-1.26312 2.30825,-2.17735 2.47874,-1.38672 4.88111,-2.91979 7.43624,-4.16017 0.3738,-0.18146 0.83139,-0.09 1.24537,-0.0543 2.05125,0.17719 3.38432,1.57389 4.68636,3.00322 2.46952,3.18975 3.44066,7.14422 4.53566,10.94826 0.16764,0.51085 0.33528,1.02171 0.50291,1.53256 0,0 -6.40646,3.51387 -6.40646,3.51387 l 0,0 c -0.15771,-0.52463 -0.31542,-1.04927 -0.47313,-1.57391 -1.01885,-3.7076 -1.93694,-7.56156 -4.40548,-10.6186 -1.21013,-1.2397 -2.47566,-2.50044 -4.35939,-2.39672 -0.37341,0.0206 -1.40299,0.44255 -1.09928,0.22432 1.63121,-1.17209 3.43161,-2.08871 5.14741,-3.13307 -0.40445,0.2861 -0.83216,0.54187 -1.21336,0.85829 -2.73113,2.26707 -4.26192,5.58402 -6.00415,8.59019 -1.10363,2.05753 -0.94866,1.79012 -2.04697,3.75755 -0.062,0.11098 -1.24448,2.32866 -1.57769,2.53431 -2.32656,1.43594 -4.73037,2.76472 -7.22808,3.87657 -0.24368,0.10848 -0.48428,-0.22375 -0.72642,-0.33562 -2.03782,-2.29106 -2.91717,-5.31559 -4.44695,-7.93113 -0.54956,-0.90402 -1.13603,-1.98074 -1.85852,-2.78032 -0.23866,-0.26413 -0.50129,-0.5214 -0.81431,-0.69092 -0.2051,-0.11107 -0.87721,0.0144 -0.68881,-0.12311 1.78478,-1.30257 3.75783,-2.32533 5.63675,-3.48799 -0.24931,0.19263 -0.49862,0.38526 -0.74794,0.5779 -0.2237,0.35295 -0.47437,0.69019 -0.6711,1.05887 -1.62296,3.0415 -2.00424,6.61392 -2.71707,9.93094 -0.44768,3.50565 -0.85819,7.03417 -0.61931,10.57436 0,0 -6.67916,3.4032 -6.67916,3.4032 z"
       inkscape:connector-curvature="0" />
  </g>
</svg>
