<?xml version="1.0" encoding="UTF-8" standalone="no"?>
<!-- Created with Inkscape (http://www.inkscape.org/) -->

<svg
   xmlns:dc="http://purl.org/dc/elements/1.1/"
   xmlns:cc="http://creativecommons.org/ns#"
   xmlns:rdf="http://www.w3.org/1999/02/22-rdf-syntax-ns#"
   xmlns:svg="http://www.w3.org/2000/svg"
   xmlns="http://www.w3.org/2000/svg"
   version="1.1"
   width="250"
   height="203"
   viewbox="0 0 250 203"
   id="svg3042"
   xml:space="preserve"><metadata
     id="metadata3048"><rdf:RDF><cc:Work
         rdf:about=""><dc:format>image/svg+xml</dc:format><dc:type
           rdf:resource="http://purl.org/dc/dcmitype/StillImage" /><dc:title></dc:title></cc:Work></rdf:RDF></metadata><defs
     id="defs3046"><clipPath
       id="clipPath3058"><path
         d="m 0.06,162.536 199.94,0 0,-162.476 -199.94,0 0,162.476 z"
         id="path3060" /></clipPath><clipPath
       id="clipPath3064"><path
         d="M 0,0 200,0 200,163 0,163 0,0 z"
         id="path3066" /></clipPath></defs><g
     transform="matrix(1.25,0,0,-1.25,0,203.75)"
     id="g3050"><g
       id="g3052" /><g
       id="g3054"><g
         clip-path="url(#clipPath3058)"
         id="g3056"><g
           clip-path="url(#clipPath3064)"
           id="g3062"><path
             d="m 200,143.296 c -7.358,-3.264 -15.267,-5.47 -23.566,-6.461 8.47,5.078 14.977,13.119 18.041,22.701 -7.929,-4.703 -16.71,-8.117 -26.057,-9.957 -7.484,7.975 -18.148,12.957 -29.95,12.957 -22.66,0 -41.033,-18.371 -41.033,-41.031 0,-3.216 0.363,-6.348 1.063,-9.351 -34.102,1.711 -64.337,18.047 -84.574,42.872 -3.532,-6.06 -5.556,-13.109 -5.556,-20.629 0,-14.236 7.244,-26.795 18.254,-34.153 -6.726,0.213 -13.053,2.059 -18.585,5.132 -0.004,-0.171 -0.004,-0.342 -0.004,-0.516 0,-19.88 14.144,-36.464 32.915,-40.234 -3.443,-0.938 -7.068,-1.44 -10.81,-1.44 -2.644,0 -5.215,0.258 -7.72,0.737 C 27.639,47.622 42.792,35.758 60.748,35.428 46.705,24.422 29.013,17.862 9.788,17.862 6.476,17.862 3.21,18.057 0,18.436 18.159,6.794 39.727,0 62.899,0 c 75.473,0 116.746,62.524 116.746,116.747 0,1.779 -0.041,3.548 -0.12,5.308 8.018,5.786 14.974,13.012 20.475,21.241"
             id="path3068"
             style="fill:#52ade5;fill-opacity:1;fill-rule:nonzero;stroke:none" /></g></g></g></g></svg>