<?xml version="1.0" encoding="UTF-8" standalone="no"?>
<!-- Created with Inkscape (http://www.inkscape.org/) -->

<svg
   xmlns:dc="http://purl.org/dc/elements/1.1/"
   xmlns:cc="http://creativecommons.org/ns#"
   xmlns:rdf="http://www.w3.org/1999/02/22-rdf-syntax-ns#"
   xmlns:svg="http://www.w3.org/2000/svg"
   xmlns="http://www.w3.org/2000/svg"
   version="1.1"
   width="934.48767"
   height="273.84375"
   viewBox="-51.7 -2.5 934.48767 273.84375"
   id="svg3959"
   xml:space="preserve"
   style="overflow:visible"><metadata
   id="metadata3979"><rdf:RDF><cc:Work
       rdf:about=""><dc:format>image/svg+xml</dc:format><dc:type
         rdf:resource="http://purl.org/dc/dcmitype/StillImage" /><dc:title></dc:title></cc:Work></rdf:RDF></metadata>
<defs
   id="defs3961">
</defs>






<path
   d="M 395,-19.46875 A 19.456076,19.456076 0 0 0 375.53125,0 l 0,68.09375 A 19.456076,19.456076 0 0 0 358.3125,57.625 l -3.9375,0 c 5.19136,-7.790199 8.28125,-17.079242 8.28125,-27.03125 0,-26.9079982 -22.24825,-49.15625 -49.15625,-49.15625 -26.908,0 -49.15625,22.2482518 -49.15625,49.15625 0,11.036103 3.89078,21.179268 10.15625,29.4375 a 19.456076,19.456076 0 0 0 -4.53125,3.40625 19.456076,19.456076 0 0 0 -12.28125,-4.40625 l -54.09375,0 a 19.456076,19.456076 0 0 0 -19.125,15.875 l -2.78125,14.875 -3.875,-15.875 a 19.456076,19.456076 0 0 0 -18.90625,-14.875 l -23.40625,0 -1.3125,0 -10.6875,0 -1.3125,0 -23.5,0 a 19.456076,19.456076 0 0 0 -18.90625,14.875 l -3.84375,15.875 -2.8125,-14.875 A 19.456076,19.456076 0 0 0 54,59.03125 l -54,0 a 19.456076,19.456076 0 0 0 -18.8125,24.375 l 39.59375,152 a 19.456076,19.456076 0 0 0 18.8125,14.5625 l 69.71875,0 a 19.456076,19.456076 0 0 0 18.90625,-14.875 l 0.59375,-2.4375 0.59375,2.4375 a 19.456076,19.456076 0 0 0 18.90625,14.875 l 69.6875,0 a 19.456076,19.456076 0 0 0 18.8125,-14.5625 l 27.53125,-105.4375 0,48.9375 0,51.28125 0,1.21875 A 19.456076,19.456076 0 0 0 283.8125,250.875 l 74.5,0 A 19.456076,19.456076 0 0 0 376.71875,237.625 19.456076,19.456076 0 0 0 395,250.5625 l 52,0 a 19.456076,19.456076 0 0 0 19.46875,-19.46875 l 0,-18.1875 17.0625,28.25 a 19.456076,19.456076 0 0 0 16.65625,9.40625 l 67.625,0 A 19.456076,19.456076 0 0 0 578,247.65625 19.456076,19.456076 0 0 0 588.6875,250.875 l 74.5,0 a 19.456076,19.456076 0 0 0 19.46875,-19.46875 l 0,-1.21875 0,-16.625 c 2.53966,4.69489 5.40511,9.12551 8.78125,13.1875 15.25057,18.3487 38.82788,27.625 64.65625,27.625 15.36785,0 28.33889,-3.86107 39.09375,-9.4375 A 19.456076,19.456076 0 0 0 808,249.78125 l 47.59375,0 A 19.456076,19.456076 0 0 0 875,229.03125 l -2.84375,-43.4375 0,-63.28125 L 875,78.875 A 19.456076,19.456076 0 0 0 855.59375,58.125 L 808,58.125 a 19.456076,19.456076 0 0 0 -12.78125,4.84375 c -10.75363,-5.60854 -23.72524,-9.53125 -39.125,-9.53125 -25.84335,0 -49.41404,9.300764 -64.65625,27.65625 -3.3756,4.065073 -6.24183,8.521869 -8.78125,13.21875 l 0,-17.21875 A 19.456076,19.456076 0 0 0 672.5,60.03125 c 6.26547,-8.258232 10.15625,-18.401397 10.15625,-29.4375 0,-26.9079982 -22.24825,-49.15625 -49.15625,-49.15625 -26.90232,0 -49.25039,22.241423 -49.15625,49.15625 0,0.04191 -1.1e-4,0.08311 0,0.125 0.0255,9.904754 3.11176,19.148859 8.28125,26.90625 l -3.9375,0 a 19.456076,19.456076 0 0 0 -12.75,4.8125 19.456076,19.456076 0 0 0 -11.625,-3.90625 l -74.21875,0 a 19.456076,19.456076 0 0 0 -14.84375,6.875 l -8.78125,10.34375 0,-75.75 A 19.456076,19.456076 0 0 0 447,-19.46875 l -52,0 z m 174.21875,119.875 0,9.1875 a 19.456076,19.456076 0 0 0 19.46875,19.46875 l 3.84375,0 0,50.46875 -3.84375,0 A 19.456076,19.456076 0 0 0 569.21875,199 l 0,0.15625 -41,-58.6875 41,-40.0625 z m -193.6875,18.21875 0,71.375 A 19.456076,19.456076 0 0 0 358.3125,179.53125 l -3.9375,0 0,-50.46875 3.9375,0 a 19.456076,19.456076 0 0 0 17.21875,-10.4375 z m 394.65625,20.84375 c 5.12689,0 8.47711,1.12673 11.15625,3 l 0,23.0625 c -2.65913,1.84092 -6.03974,3 -11.15625,3 -3.60157,0 -4.49985,-0.627 -5.5,-1.71875 -1.00015,-1.09175 -3.03125,-4.22695 -3.03125,-12.8125 0,-8.58555 2.0311,-11.72075 3.03125,-12.8125 1.00015,-1.09175 1.89843,-1.71875 5.5,-1.71875 z"
   transform="translate(-12.255426,16.968754)"
   id="path4562"
   style="fill:#ffffff;fill-opacity:1;stroke:none" /><path
   d="m 576.44457,126.56875 0,-32.499996 22.5,0 52,0 0,52.599996 0,49.2 0,51.3 0,1.2 -74.5,0 0,-32.4 23.3,0 0,-89.4 z m 44.8,-108.699996 c 16.4,0 29.7,13.3 29.7,29.7 0,16.4 -13.3,29.7 -29.7,29.7 -16.4,0 -29.7,-13.3 -29.7,-29.7 -0.1,-16.4 13.2,-29.7 29.7,-29.7 z m -275.2,108.699996 0,-32.499996 -22.5,0 -52,0 0,52.599996 0,49.2 0,51.3 0,1.2 74.5,0 0,-32.4 -23.4,0 0,-89.4 z m -44.8,-108.699996 c -16.4,0 -29.7,13.3 -29.7,29.7 0,16.4 13.3,29.7 29.7,29.7 16.4,0 29.7,-13.3 29.7,-29.7 0,-16.4 -13.3,-29.7 -29.7,-29.7 z m 539.2,121.099996 2.9,-44.399996 h -47.6 l -3.5,16.399996 c -10.9,-11.499996 -24.5,-21.099996 -48.4,-21.099996 -43.3,0 -66.9,27.999996 -66.9,80.999996 0,53.1 23.6,81 66.9,81 23.9,0 37.5,-9.5 48.4,-21 l 3.5,16.4 h 47.6 l -2.9,-44.4 v -63.9 z m -51.9,51.6 c -6.6,8.6 -17,14.4 -30.6,14.4 -15.6,0 -28,-10.1 -28,-34 0,-23.9 12.4,-34 28,-34 13.6,0 23.9,5.8 30.6,14.4 v 39.2 z m -597.2,-95.099996 -19.4,103.699996 -25.3,-103.699996 -23.4,0 -1.3,0 -10.7,0 -1.3,0 -23.499996,0 -25.2,103.699996 -19.5,-103.699996 -54,0 39.6,151.999996 69.7,0 19.499996,-80.1 19.5,80.1 69.7,0 39.7,-151.999996 z m 191.4,152.599996 0,-231.099996 52,0 0,129.699996 13.9,-17.3 29.2,-34.399996 74.2,0 -61.5,60.099996 65,93 -67.6,0 -35.3,-58.4 -17.9,17.1 0,41.3 z"
   id="polygon3975"
   style="fill:#002e54;stroke:none" />
</svg>