<?xml version="1.0" encoding="utf-8"?>
<!-- Generator: Adobe Illustrator 15.0.0, SVG Export Plug-In  -->
<!DOCTYPE svg PUBLIC "-//W3C//DTD SVG 1.1//EN" "http://www.w3.org/Graphics/SVG/1.1/DTD/svg11.dtd" [
	<!ENTITY ns_flows "http://ns.adobe.com/Flows/1.0/">
]>
<svg version="1.1"
	 xmlns="http://www.w3.org/2000/svg" xmlns:xlink="http://www.w3.org/1999/xlink" xmlns:a="http://ns.adobe.com/AdobeSVGViewerExtensions/3.0/"
	 x="0px" y="0px" width="959px" height="240px" viewBox="-51.7 -2.5 959 240"
	 overflow="visible" enable-background="new -51.7 -2.5 959 240" xml:space="preserve">
<defs>
</defs>
<polygon fill="#002E54" points="395,231.1 395,0 447,0 447,129.7 460.9,112.4 490.1,78 564.3,78 502.8,138.1 567.8,231.1 
	500.2,231.1 464.9,172.7 447,189.8 447,231.1 "/>
<polygon fill="#002E54" points="203.6,78.5 184.2,182.2 158.9,78.5 135.5,78.5 134.2,78.5 123.5,78.5 122.2,78.5 98.7,78.5 
	73.5,182.2 54,78.5 0,78.5 39.6,230.5 109.3,230.5 128.8,150.4 148.3,230.5 218,230.5 257.7,78.5 "/>
<path fill="#002E54" d="M852.7,122l2.9-44.4H808L804.5,94c-10.9-11.5-24.5-21.1-48.4-21.1c-43.3,0-66.9,28-66.9,81
	c0,53.1,23.6,81,66.9,81c23.9,0,37.5-9.5,48.4-21l3.5,16.4h47.6l-2.9-44.4V122z M800.8,173.6c-6.6,8.6-17,14.4-30.6,14.4
	c-15.6,0-28-10.1-28-34c0-23.9,12.4-34,28-34c13.6,0,23.9,5.8,30.6,14.4V173.6z"/>
<path fill="#002E54" d="M313.5,0.9c-16.4,0-29.7,13.3-29.7,29.7c0,16.4,13.3,29.7,29.7,29.7c16.4,0,29.7-13.3,29.7-29.7
	C343.2,14.2,329.9,0.9,313.5,0.9z"/>
<polygon fill="#002E54" points="358.3,109.6 358.3,77.1 335.8,77.1 283.8,77.1 283.8,129.7 283.8,178.9 283.8,230.2 283.8,231.4 
	358.3,231.4 358.3,199 334.9,199 334.9,109.6 "/>
<path fill="#002E54" d="M633.5,0.9c16.4,0,29.7,13.3,29.7,29.7c0,16.4-13.3,29.7-29.7,29.7c-16.4,0-29.7-13.3-29.7-29.7
	C603.7,14.2,617,0.9,633.5,0.9z"/>
<polygon fill="#002E54" points="588.7,109.6 588.7,77.1 611.2,77.1 663.2,77.1 663.2,129.7 663.2,178.9 663.2,230.2 663.2,231.4 
	588.7,231.4 588.7,199 612,199 612,109.6 "/>
</svg>
